<?xml version="1.0" standalone="no"?>
<!DOCTYPE svg PUBLIC "-//W3C//DTD SVG 20010904//EN"
 "http://www.w3.org/TR/2001/REC-SVG-20010904/DTD/svg10.dtd">
<svg version="1.0" xmlns="http://www.w3.org/2000/svg"
 width="401.000000pt" height="401.000000pt" viewBox="0 0 401.000000 401.000000"
 preserveAspectRatio="xMidYMid meet">
<metadata>
Created by potrace 1.14, written by Peter Selinger 2001-2017
</metadata>
<g transform="translate(0.000000,401.000000) scale(0.100000,-0.100000)"
fill="#000000" stroke="none">
<path d="M2274 3519 c-92 -20 -209 -66 -277 -109 -131 -83 -195 -175 -301
-441 -121 -300 -143 -348 -187 -406 -58 -77 -118 -103 -251 -111 -95 -5 -100
-4 -94 14 5 16 28 122 42 189 2 11 15 72 29 135 15 63 29 126 31 140 3 14 16
74 30 135 13 60 26 119 28 130 2 11 9 39 15 62 15 55 8 91 -24 120 -14 13 -25
33 -25 43 0 11 -12 27 -26 37 -23 15 -55 17 -228 18 -110 1 -215 -3 -233 -7
-54 -15 -74 -61 -117 -273 -3 -11 -18 -83 -35 -160 -17 -77 -33 -149 -36 -160
-4 -21 -47 -216 -70 -320 -31 -137 -126 -572 -129 -590 -2 -11 -10 -42 -16
-70 -6 -27 -13 -59 -16 -70 -2 -11 -35 -162 -73 -335 -39 -173 -72 -326 -75
-340 -2 -14 -11 -54 -21 -89 -26 -101 -24 -145 8 -179 15 -15 27 -35 27 -43 1
-18 21 -43 40 -48 8 -3 115 -5 237 -5 286 -1 262 -18 318 230 20 87 38 174 41
193 2 19 6 37 9 41 2 4 12 42 21 86 20 98 15 75 64 294 23 102 43 194 45 205
3 11 7 32 10 46 l6 26 137 -2 c150 -2 209 -15 217 -50 3 -11 7 -171 9 -355 4
-382 11 -428 78 -527 15 -23 28 -47 28 -53 0 -7 26 -38 58 -69 55 -53 129 -93
198 -106 10 -2 19 -4 19 -5 0 -6 76 -13 157 -14 92 -1 99 1 122 24 32 33 176
343 176 380 0 28 -22 60 -41 60 -5 0 -9 9 -9 19 0 11 -3 26 -6 35 -6 16 -73
39 -144 51 -19 3 -39 10 -44 15 -5 5 -11 110 -13 232 -2 123 -6 248 -10 278
-3 30 -6 58 -5 62 6 28 -77 183 -132 247 -14 16 -17 25 -9 28 34 12 133 85
169 124 62 69 104 147 183 349 82 207 109 264 142 299 26 27 89 57 139 66 121
20 135 41 126 184 -11 180 -22 237 -46 254 -11 8 -25 28 -31 46 -6 17 -21 37
-33 43 -32 18 -111 17 -202 -3z"/>
<path d="M2378 1955 c-3 -4 -4 -15 -1 -26 5 -16 14 -19 69 -19 44 0 64 -4 65
-12 0 -14 0 -1056 -1 -1099 0 -24 -2 -25 -57 -24 -64 2 -83 -7 -76 -33 4 -16
39 -17 531 -16 290 1 543 4 562 8 257 47 352 137 346 326 -4 150 -93 241 -270
276 -34 6 -131 17 -148 16 -11 0 -18 6 -18 17 0 13 10 18 43 20 250 14 397
147 360 326 -26 122 -115 194 -283 230 -50 11 -182 14 -591 15 -289 0 -528 -2
-531 -5z m802 -65 c47 -25 53 -49 52 -235 -1 -228 -14 -256 -117 -260 -44 -1
-55 2 -56 14 -1 20 -1 424 0 470 l1 34 50 -6 c27 -3 59 -11 70 -17z m6 -566
c59 -28 68 -63 68 -264 0 -157 -2 -180 -20 -215 -24 -47 -56 -65 -124 -69 -50
-3 -50 -3 -51 28 -1 40 -1 518 0 529 2 13 93 7 127 -9z"/>
<path d="M2381 984 c0 -11 3 -14 6 -6 3 7 2 16 -1 19 -3 4 -6 -2 -5 -13z"/>
</g>
</svg>
