<?xml version="1.0" encoding="utf-8"?>
<!-- Generator: Adobe Illustrator 22.1.0, SVG Export Plug-In . SVG Version: 6.00 Build 0)  -->
<svg version="1.1" id="Слой_1" xmlns="http://www.w3.org/2000/svg" xmlns:xlink="http://www.w3.org/1999/xlink" x="0px" y="0px"
	 viewBox="0 0 39 22.6" style="enable-background:new 0 0 39 22.6;" xml:space="preserve">
<g>
	<path d="M38.9,3.2c0,0.3-0.1,0.6-0.4,0.9L20.4,22.2c-0.3,0.3-0.6,0.4-0.9,0.4s-0.6-0.1-0.9-0.4L0.5,4.1C0.2,3.8,0.1,3.5,0.1,3.2
		s0.1-0.6,0.4-0.9l1.9-1.9C2.7,0.1,3,0,3.3,0s0.6,0.1,0.9,0.4l15.3,15.3L34.8,0.4C35.1,0.1,35.4,0,35.7,0s0.6,0.1,0.9,0.4l1.9,1.9
		C38.7,2.6,38.9,2.9,38.9,3.2z"/>
</g>
</svg>
