<?xml version="1.0" encoding="utf-8"?>
<!-- Generator: Adobe Illustrator 22.1.0, SVG Export Plug-In . SVG Version: 6.00 Build 0)  -->
<svg version="1.1" id="Слой_1" xmlns="http://www.w3.org/2000/svg" xmlns:xlink="http://www.w3.org/1999/xlink" x="0px" y="0px"
	 viewBox="0 0 148.3 113.2" style="enable-background:new 0 0 148.3 113.2;" xml:space="preserve">
<style type="text/css">
	.st0{fill:#00802E;}
</style>
<g transform="translate(0,-1020.3622)">
	<g>
		<path class="st0" d="M64.2,1035.1c-0.8,0-1.4,0.6-1.4,1.4v6.1c-15.2,5-25.5,19.2-25.3,35.3h-4.9c-0.7,0-1.3,0.6-1.3,1.3v6.7
			c0,0.7,0.6,1.3,1.3,1.3h83.1c0.7,0,1.3-0.6,1.3-1.3v-6.7c0-0.7-0.6-1.3-1.3-1.3h-4.9c0.2-16-10.1-30.3-25.3-35.3v-6.1
			c0-0.8-0.6-1.4-1.4-1.4H64.2z M65.6,1038h7.1v14.3h2.9V1038h7.1v18.6c0,0.8,0.5,1.5,1.3,1.5s1.5-0.5,1.5-1.3c0-0.1,0-0.1,0-0.2
			v-10.9c13.6,4.8,22.6,17.8,22.4,32.3h-1.6c-0.7,0-1.3,0.5-1.3,1.2s0.5,1.3,1.2,1.3c0,0,0,0,0.1,0h8.1v4.1H33.9v-4.1H42
			c0.7,0,1.3-0.5,1.3-1.2s-0.5-1.3-1.2-1.3c0,0,0,0-0.1,0h-1.6c-0.2-14.5,8.9-27.4,22.4-32.3v10.9c0,0.8,0.5,1.5,1.3,1.5
			s1.5-0.5,1.5-1.3c0-0.1,0-0.1,0-0.2C65.6,1056.6,65.6,1038,65.6,1038z M54.2,1077.9c-0.8,0-1.4,0.6-1.4,1.4s0.6,1.4,1.4,1.4h40
			c0.8,0,1.4-0.6,1.4-1.4s-0.6-1.4-1.4-1.4H54.2z M32.8,1090.3c-0.8,0-1.4,0.6-1.4,1.4l0,0v6c0,0.8,0.6,1.4,1.4,1.4l0,0h7.5
			c0.8,3.1,2,6,3.6,8.7l-5.3,5.3c-0.6,0.6-0.6,1.5,0,2l0,0l10.6,10.6c0.6,0.6,1.5,0.6,2,0l0,0l5.3-5.3c2.7,1.6,5.6,2.8,8.7,3.6v7.5
			c0,0.8,0.6,1.4,1.4,1.4l0,0h15.1c0.8,0,1.4-0.6,1.4-1.4l0,0v-7.5c3.1-0.8,6-2,8.7-3.6l5.3,5.3c0.6,0.6,1.5,0.6,2,0l0,0l10.6-10.6
			c0.6-0.6,0.6-1.5,0-2l0,0l-5.3-5.3c1.6-2.7,2.8-5.6,3.6-8.7h7.5c0.8,0,1.4-0.6,1.4-1.4l0,0v-6c0-0.8-0.6-1.4-1.4-1.4l0,0H32.8z
			 M34.2,1093.1h18.6c0,7.6,3.9,14.6,10.5,18.5c6.8,4,15.4,4,22.1-0.2c6.4-3.9,10.1-10.9,10.1-18.3h18.6v3.1h-7
			c-0.7,0-1.2,0.5-1.4,1.1c-0.8,3.6-2.2,6.9-4.2,10c-0.4,0.6-0.3,1.3,0.2,1.8l4.9,4.9l-8.6,8.6l-4.9-4.9c-0.5-0.5-1.2-0.6-1.8-0.2
			c-3.1,1.9-6.5,3.3-10.1,4.1c-0.6,0.1-1.1,0.7-1.1,1.4v7H68v-7c0-0.7-0.5-1.2-1.1-1.4c-3.6-0.8-6.9-2.2-10-4.2
			c-0.6-0.4-1.3-0.3-1.8,0.2l-4.9,4.9l-8.6-8.6l4.9-4.9c0.5-0.5,0.6-1.2,0.2-1.8c-1.9-3.1-3.3-6.5-4.1-10.1
			c-0.1-0.6-0.7-1.1-1.4-1.1h-7V1093.1z M55.8,1093.1h36.6c0,6.4-3.2,12.3-8.6,15.7c-5.8,3.6-13.1,3.7-19,0.2
			C59.2,1105.7,55.8,1099.6,55.8,1093.1z"/>
		<path class="st0" d="M81.7,1133.5L81.7,1133.5H66.6c-1.1,0-2-0.9-2-2v-7.1c-2.8-0.8-5.5-1.9-8.1-3.3l-5,5
			c-0.4,0.4-0.9,0.6-1.4,0.6l0,0c-0.5,0-1-0.2-1.4-0.6l-10.6-10.6c-0.4-0.4-0.6-0.9-0.6-1.4s0.2-1,0.6-1.4l5-5
			c-1.4-2.5-2.5-5.3-3.3-8.1h-7.1c-1.1,0-2-0.9-2-2v-6c0-0.5,0.2-1,0.6-1.4s0.9-0.6,1.4-0.6l0,0h82.8c1.1,0,2,0.9,2,2v6
			c0,1.1-0.9,2-2,2l0,0h-7.1c-0.8,2.8-1.9,5.5-3.3,8.1l5,5c0.8,0.8,0.8,2,0,2.8l-10.6,10.6c-0.4,0.4-0.9,0.6-1.4,0.6l0,0
			c-0.5,0-1-0.2-1.4-0.6l-5-5c-2.5,1.4-5.3,2.5-8.1,3.3v7.1c0,0.5-0.2,1-0.6,1.4C82.7,1133.3,82.2,1133.5,81.7,1133.5z M56.4,1119.8
			l0.4,0.2c2.7,1.6,5.6,2.7,8.6,3.5l0.4,0.1v7.9c0,0.5,0.4,0.9,0.9,0.9h15.1l0,0c0.2,0,0.5-0.1,0.6-0.3c0.2-0.2,0.3-0.4,0.3-0.6
			v-7.9l0.4-0.1c3-0.8,5.9-2,8.6-3.5l0.4-0.2l5.6,5.6c0.3,0.3,0.9,0.3,1.3,0l10.6-10.6c0.3-0.3,0.3-0.9,0-1.3l-5.6-5.6l0.2-0.4
			c1.6-2.7,2.8-5.6,3.5-8.6l0.1-0.4h7.9l0,0c0.5,0,0.9-0.4,0.9-0.9v-6c0-0.5-0.4-0.9-0.9-0.9H32.8l0,0c-0.2,0-0.5,0.1-0.6,0.3
			c-0.2,0.2-0.3,0.4-0.3,0.6v6c0,0.5,0.4,0.9,0.9,0.9h7.9l0.1,0.4c0.8,3,2,5.9,3.5,8.6l0.2,0.4l-5.6,5.6c-0.3,0.3-0.3,0.9,0,1.3
			l10.6,10.6c0.2,0.2,0.4,0.3,0.6,0.3l0,0c0.2,0,0.5-0.1,0.6-0.3L56.4,1119.8z M80.8,1130.7H67.5v-7.5c0-0.4-0.3-0.8-0.7-0.9
			c-3.6-0.8-7.1-2.2-10.2-4.2c-0.4-0.2-0.8-0.2-1.1,0.1l-5.3,5.3l-9.4-9.4l5.3-5.3c0.3-0.3,0.3-0.7,0.1-1.1c-2-3.2-3.4-6.6-4.2-10.2
			c-0.1-0.4-0.4-0.7-0.9-0.7h-7.5v-4.2h19.7v0.5c0,7.4,3.9,14.3,10.2,18.1c6.7,4,15,3.9,21.6-0.2c6.2-3.8,9.9-10.5,9.8-17.8v-0.5
			h19.7v4.2h-7.5c-0.4,0-0.8,0.3-0.9,0.7c-0.8,3.6-2.2,7-4.2,10.2c-0.2,0.4-0.2,0.8,0.1,1.1l5.3,5.3l-9.4,9.4l-5.3-5.3
			c-0.3-0.3-0.7-0.3-1.1-0.1c-3.2,2-6.6,3.4-10.2,4.2c-0.4,0.1-0.7,0.4-0.7,0.9L80.8,1130.7L80.8,1130.7z M68.6,1129.6h11.1v-6.5
			c0-0.9,0.6-1.7,1.5-1.9c3.5-0.8,6.8-2.2,9.9-4.1c0.8-0.5,1.8-0.4,2.4,0.3l4.5,4.5l7.9-7.9l-4.5-4.5c-0.7-0.7-0.8-1.7-0.3-2.4
			c1.9-3.1,3.3-6.4,4.1-9.9c0.2-0.9,1-1.5,1.9-1.5h6.4v-2.1H96c-0.1,3.6-1,7.1-2.7,10.2c-1.8,3.3-4.4,6.1-7.6,8
			c-7,4.3-15.7,4.4-22.7,0.2c-6.5-3.8-10.6-10.9-10.7-18.5H34.7v2.1h6.5c0.9,0,1.7,0.6,1.9,1.5c0.8,3.5,2.2,6.8,4.1,9.9
			c0.5,0.8,0.4,1.8-0.3,2.4l-4.5,4.5l7.9,7.9l4.5-4.5c0.7-0.7,1.7-0.8,2.4-0.3c3,1.9,6.4,3.3,9.9,4.1c0.9,0.2,1.5,1,1.5,1.9
			C68.6,1123,68.6,1129.6,68.6,1129.6z M74.1,1112.1c-3.3,0-6.6-0.9-9.6-2.6c-5.7-3.4-9.3-9.7-9.2-16.4v-0.5H93v0.5
			c0,6.6-3.3,12.7-8.9,16.2C81,1111.2,77.6,1112.1,74.1,1112.1z M56.4,1093.7c0.2,6.1,3.5,11.8,8.7,14.9c5.7,3.4,12.8,3.3,18.4-0.2
			c5.1-3.2,8.2-8.6,8.4-14.7L56.4,1093.7L56.4,1093.7z M115.7,1087.7H32.6c-1,0-1.8-0.8-1.8-1.8v-6.7c0-1,0.8-1.8,1.8-1.8h4.3
			c0-7.8,2.4-15.2,7-21.6s10.9-11,18.3-13.6v-5.8c0-1.1,0.9-2,2-2h20c1.1,0,2,0.9,2,2v5.8c7.4,2.5,13.7,7.2,18.3,13.6
			c4.5,6.3,6.9,13.8,7,21.5h4.3c1,0,1.8,0.8,1.8,1.8v6.7C117.5,1086.8,116.7,1087.7,115.7,1087.7z M32.6,1078.5
			c-0.4,0-0.7,0.3-0.7,0.7v6.7c0,0.4,0.3,0.7,0.7,0.7h83.1c0.4,0,0.7-0.3,0.7-0.7v-6.7c0-0.4-0.3-0.7-0.7-0.7h-5.4v-0.5
			c0.2-15.8-9.8-29.8-24.9-34.7l-0.4-0.1v-6.5c0-0.5-0.4-0.9-0.9-0.9h-20c-0.5,0-0.9,0.4-0.9,0.9v6.5l-0.4,0.1
			c-15.1,4.9-25.1,18.9-24.9,34.7v0.5H32.6z M115,1085.1H33.3v-5.2h8.6c0.4,0,0.7-0.3,0.7-0.7c0-0.4-0.3-0.7-0.7-0.7h-2.2v-0.5
			c-0.2-14.7,9-27.9,22.8-32.8l0.7-0.3v11.7c0,0.2,0.1,0.5,0.2,0.6c0.2,0.2,0.4,0.3,0.6,0.3c0.5,0,0.9-0.3,0.9-0.8v-0.1l0,0v-19.1
			h8.2v14.3H75v-14.3h8.2v19.1c0,0.5,0.3,0.9,0.8,0.9s0.9-0.3,0.9-0.8v-0.1l0,0V1045l0.7,0.3c13.8,4.9,23,18.1,22.8,32.8v0.5h-2.1
			c-0.2,0-0.4,0.1-0.5,0.2s-0.2,0.3-0.2,0.5s0.1,0.4,0.2,0.5s0.3,0.2,0.5,0.2h8.6v5.1H115z M34.4,1084.1h79.5v-3.1h-7.5
			c0,0,0,0-0.1,0c-0.5,0-0.9-0.2-1.3-0.6c-0.3-0.3-0.5-0.8-0.5-1.3s0.2-0.9,0.6-1.3c0.3-0.3,0.8-0.5,1.3-0.5h1.1
			c0-13.7-8.5-26-21.4-31v10.1c0,0.1,0,0.2,0,0.2c-0.1,1.1-1,1.9-2.1,1.8s-1.9-1-1.8-2.1v-18h-6.1v14.3h-3.9v-14.3h-6.1v18
			c0,0.1,0,0.2,0,0.2c-0.1,1.1-1,1.9-2.1,1.8c-0.5,0-1-0.3-1.4-0.7c-0.3-0.4-0.5-0.9-0.5-1.4v-10.1c-12.8,4.9-21.3,17.2-21.4,31h1.1
			c0,0,0,0,0.1,0c1,0,1.8,0.8,1.8,1.8s-0.9,1.8-1.8,1.8h-7.5C34.4,1080.7,34.4,1084.1,34.4,1084.1z M94.1,1081.3h-40
			c-1.1,0-2-0.9-2-2c0-0.5,0.2-1,0.6-1.4c0.4-0.4,0.9-0.6,1.4-0.6h40c1.1,0,2,0.9,2,2c0,0.5-0.2,1-0.6,1.4
			C95.1,1081.1,94.7,1081.3,94.1,1081.3z M54.2,1078.5c-0.2,0-0.5,0.1-0.6,0.3c-0.2,0.2-0.3,0.4-0.3,0.6c0,0.5,0.4,0.9,0.9,0.9h40
			c0.2,0,0.5-0.1,0.6-0.3c0.2-0.2,0.3-0.4,0.3-0.6c0-0.5-0.4-0.9-0.9-0.9H54.2z"/>
	</g>
</g>
</svg>
