<?xml version="1.0" encoding="utf-8"?>
<!-- Generator: Adobe Illustrator 22.1.0, SVG Export Plug-In . SVG Version: 6.00 Build 0)  -->
<svg version="1.1" id="Слой_1" xmlns="http://www.w3.org/2000/svg" xmlns:xlink="http://www.w3.org/1999/xlink" x="0px" y="0px"
	 viewBox="0 0 148.3 113.2" style="enable-background:new 0 0 148.3 113.2;" xml:space="preserve">
<style type="text/css">
	.st0{fill:#00802E;}
</style>
<g>
	<path class="st0" d="M30.4,78.7c-0.6,0.2-1,0.7-1.1,1.4l-3.3,31c0,0.5,0.1,0.9,0.4,1.3c0.3,0.3,0.8,0.5,1.2,0.5h17.9h19.6H83
		c0.5,0,0.9-0.2,1.2-0.5s0.5-0.8,0.4-1.3l-1.9-17.8h21.5v6.5c0,0.9,0.7,1.6,1.6,1.6h6.5c5.4,0,9.8-4.4,9.8-9.8V41.1
		c0-5.4-4.4-9.8-9.8-9.8H73.6c-2.8-4.4-6.8-8.2-11.7-10.1v-4.6c0-0.9-0.7-1.6-1.6-1.6h-9.8c-0.9,0-1.6,0.7-1.6,1.6v4.6
		c-8.4,3.3-14.1,12.1-15.8,19.9h-2.2c-0.9,0-1.6,0.7-1.6,1.6v6.5c0,0.9,0.7,1.6,1.6,1.6h3.5c0.8,6.6,4,12.7,9.1,16.9
		c0.1,0.1,0.3,0.2,0.4,0.3v6L30.4,78.7z M32.4,81.5L44,77.6v1v8.2v22.8H29.5L32.4,81.5z M58.5,101.3l-3.2,6.3l-3.2-6.3l3.2-11.6
		L58.5,101.3z M63.5,84.5l-3.9-1.3l3.9-2V84.5z M47.2,84.5v-3.3l3.9,2L47.2,84.5z M47.2,88l5.8-2l-4.1,15c-0.1,0.4-0.1,0.8,0.1,1.2
		l3.7,7.4h-5.5V88z M58,109.6l3.7-7.4c0.2-0.4,0.2-0.8,0.1-1.2l-4.1-15l5.8,1.9v21.7C63.5,109.6,58,109.6,58,109.6z M66.8,109.6
		V86.8v-8.2v-1l11.5,3.8l1.1,10.4l0,0l1.9,17.8C81.3,109.6,66.8,109.6,66.8,109.6z M119,91.7c0,3.6-2.9,6.5-6.5,6.5h-4.9v-6.5V50.9
		h4.9c0.6,0,1.2-0.1,1.7-0.2h0.1c0.5-0.1,1-0.3,1.5-0.4c0.1,0,0.1,0,0.2-0.1c0.5-0.2,0.9-0.4,1.4-0.7c0.1,0,0.1-0.1,0.2-0.1
		c0.4-0.3,0.8-0.6,1.2-0.9c0,0,0.1,0,0.1-0.1v43.3H119z M75.4,34.6h37.1c3.6,0,6.5,2.9,6.5,6.5s-2.9,6.5-6.5,6.5H106
		c-0.9,0-1.6,0.7-1.6,1.6V90H82.5l-1-10c-0.1-0.6-0.5-1.2-1.1-1.4l-13.6-4.5v-6c0.1-0.1,0.3-0.2,0.4-0.3c0.7-0.6,1.3-1.1,1.9-1.7
		c0.2-0.2,0.4-0.4,0.6-0.6c0.4-0.4,0.8-0.8,1.1-1.3c0.2-0.3,0.4-0.5,0.6-0.8c0.3-0.4,0.6-0.8,0.9-1.3c0.2-0.3,0.4-0.6,0.6-0.9
		c0.2-0.4,0.5-0.8,0.7-1.3c0.2-0.3,0.3-0.7,0.5-1c0.2-0.4,0.4-0.9,0.6-1.3c0.1-0.4,0.3-0.7,0.4-1.1c0.2-0.4,0.3-0.9,0.4-1.4
		c0.1-0.4,0.2-0.7,0.3-1.1c0.1-0.5,0.2-0.9,0.3-1.4c0.1-0.4,0.1-0.8,0.2-1.1c0-0.2,0.1-0.4,0.1-0.6h3.5c0.9,0,1.6-0.7,1.6-1.6v-6.5
		c0-0.9-0.7-1.6-1.6-1.6h-2.2c-0.1-0.5-0.2-1-0.4-1.5l0,0c-0.1-0.4-0.2-0.8-0.4-1.2c0-0.1-0.1-0.2-0.1-0.4c-0.1-0.3-0.2-0.7-0.4-1
		c-0.1-0.2-0.2-0.4-0.2-0.6c-0.1-0.2-0.2-0.5-0.3-0.7c-0.1-0.3-0.3-0.6-0.4-0.9C75.4,34.7,75.4,34.6,75.4,34.6z M32.6,44.4h1.9
		c0.8,0,1.5-0.6,1.6-1.4c1.2-7.7,6.5-15.1,12.8-18.2v4.9h3.3v-7.3v-4.1h6.5v4.1v7.3H62v-4.9c3.6,1.8,7,5.1,9.3,9l0,0
		c1.3,2.2,2.3,4.5,2.9,6.8c0,0.1,0,0.2,0.1,0.3c0.2,0.7,0.3,1.4,0.5,2.2c0.1,0.8,0.8,1.4,1.6,1.4h1.9v3.3H75H36h-3.4
		C32.6,47.8,32.6,44.4,32.6,44.4z M37.7,50.9h35.4c0,0.1,0,0.2,0,0.3c0,0.3-0.1,0.6-0.2,0.9c-0.1,0.4-0.2,0.8-0.3,1.3
		c-0.1,0.3-0.2,0.6-0.3,0.9c-0.1,0.4-0.3,0.8-0.4,1.2c-0.1,0.3-0.2,0.6-0.3,0.9c-0.2,0.4-0.3,0.8-0.5,1.2c-0.1,0.3-0.3,0.6-0.4,0.8
		c-0.2,0.4-0.4,0.8-0.6,1.1s-0.3,0.5-0.5,0.8c-0.2,0.4-0.5,0.7-0.8,1.1c-0.2,0.2-0.3,0.5-0.5,0.7c-0.3,0.4-0.6,0.7-1,1.1
		c-0.2,0.2-0.3,0.4-0.5,0.5c-0.5,0.5-1.1,1-1.6,1.5c-0.3,0.2-0.6,0.5-0.9,0.7l0,0c-0.6,0.5-1.3,0.9-2,1.2c0,0-0.1,0-0.1,0.1
		c-0.7,0.3-1.4,0.6-2.1,0.8H60c-0.7,0.2-1.4,0.4-2.2,0.5c0,0,0,0-0.1,0c-1.5,0.2-3,0.2-4.6,0c0,0,0,0-0.1,0
		c-0.7-0.1-1.5-0.3-2.2-0.5h-0.1c-0.7-0.2-1.4-0.5-2.1-0.8c0,0-0.1,0-0.1-0.1c-0.7-0.3-1.4-0.7-2-1.2l0,0c-0.3-0.2-0.6-0.4-0.9-0.7
		C41.3,61.7,38.5,56.5,37.7,50.9z M51.1,71.6c0.1,0,0.2,0,0.3,0.1c0.6,0.1,1.1,0.2,1.7,0.3c0.1,0,0.2,0,0.3,0c0.7,0.1,1.3,0.1,2,0.1
		s1.3,0,2-0.1c0.1,0,0.2,0,0.3,0c0.6-0.1,1.2-0.2,1.7-0.3c0.1,0,0.2,0,0.3-0.1c1.3-0.3,2.6-0.8,3.8-1.4c0,0,0,0,0.1,0v5.2v2.3
		l-8.2,4.1l-8.2-4.1v-2.3v-5.2c0,0,0,0,0.1,0C48.5,70.8,49.8,71.3,51.1,71.6z"/>
	<path class="st0" d="M83.1,113.2H27.7c-0.5,0-1.1-0.2-1.4-0.6c-0.4-0.4-0.5-0.9-0.5-1.5l3.3-31c0.1-0.7,0.6-1.4,1.3-1.6l0,0
		L43.7,74v-5.7c0,0,0,0-0.1,0c-0.1-0.1-0.2-0.1-0.3-0.2c-5.1-4.2-8.3-10.2-9.2-16.9h-3.3c-1,0-1.9-0.9-1.9-1.9v-6.5
		c0-1,0.9-1.9,1.9-1.9h2c1.7-7.4,7.1-16.3,15.7-19.8v-4.4c0-1,0.9-1.9,1.9-1.9h9.8c1,0,1.9,0.9,1.9,1.9v4.4c5.7,2.3,9.4,6.7,11.5,10
		h38.8c5.5,0,10.1,4.5,10.1,10.1v50.6c0,5.5-4.5,10.1-10.1,10.1H106c-1,0-1.9-0.9-1.9-1.9v-6.3H83.2l1.8,17.5
		c0.1,0.5-0.1,1.1-0.5,1.5C84.2,112.9,83.7,113.2,83.1,113.2z M30.5,79c-0.5,0.2-0.9,0.6-0.9,1.1l-3.3,31c0,0.4,0.1,0.8,0.3,1.1
		c0.3,0.3,0.6,0.5,1,0.5h55.5c0.4,0,0.8-0.2,1-0.5c0.3-0.3,0.4-0.7,0.3-1.1L82.6,93h22v6.8c0,0.8,0.6,1.4,1.4,1.4h6.5
		c5.2,0,9.5-4.3,9.5-9.5V41.1c0-5.2-4.3-9.5-9.5-9.5h-39l-0.1-0.1c-2.1-3.3-5.8-7.7-11.5-10l-0.2-0.1v-4.8c0-0.8-0.6-1.4-1.4-1.4
		h-9.8c-0.8,0-1.4,0.6-1.4,1.4v4.8L49,21.5c-8.6,3.4-14,12.3-15.6,19.7v0.2H31c-0.8,0-1.4,0.6-1.4,1.4v6.5c0,0.8,0.6,1.4,1.4,1.4
		h3.8v0.2c0.8,6.6,4,12.6,9,16.7c0.1,0.1,0.2,0.1,0.2,0.2c0.1,0,0.1,0.1,0.2,0.1l0.1,0.1v6.4L30.5,79L30.5,79z M81.6,109.9H66.5
		V77.3l12.1,4L81.6,109.9z M67.1,109.4H81l-2.9-27.7l-11-3.7V109.4z M63.8,109.9h-6.2l3.9-7.8c0.2-0.3,0.2-0.6,0.1-1l-4.2-15.5
		l6.4,2.1V109.9z M58.5,109.4h4.8V88.2l-5.1-1.7l4,14.5c0.1,0.5,0.1,0.9-0.1,1.3L58.5,109.4z M53.2,109.9H47V87.8l6.4-2.1l-4.2,15.5
		c-0.1,0.3-0.1,0.7,0.1,1L53.2,109.9z M47.5,109.4h4.8l-3.5-7c-0.2-0.4-0.3-0.9-0.1-1.3l4-14.5l-5.1,1.7v21.1H47.5z M44.2,109.9h-15
		l3-28.6l12.1-4v32.6H44.2z M29.8,109.4h13.9V78l-11,3.7L29.8,109.4z M55.4,108.2l-3.4-6.9l3.4-12.6l3.4,12.6L55.4,108.2z
		 M52.5,101.3l2.9,5.7l2.9-5.7l-2.9-10.5L52.5,101.3z M112.5,98.5h-5.2V50.6h5.2c0.5,0,1.1-0.1,1.7-0.2h0.1c0,0,0,0,0.1,0
		c0.5-0.1,1-0.2,1.5-0.4h0.1h0.1c0.5-0.2,0.9-0.4,1.3-0.7h0.1l0.1-0.1c0.4-0.3,0.8-0.6,1.2-0.9c0,0,0,0,0.1-0.1l0,0l0.4-0.4v43.8
		C119.3,95.4,116.2,98.5,112.5,98.5z M107.8,97.9h4.6c3.4,0,6.3-2.8,6.3-6.3V49c-0.3,0.2-0.6,0.4-0.9,0.6c-0.1,0-0.1,0.1-0.1,0.1
		h-0.1c-0.5,0.3-0.9,0.5-1.4,0.7c0,0-0.1,0-0.1,0.1H116c-0.5,0.2-1.1,0.4-1.6,0.5h-0.1h-0.1c-0.6,0.1-1.2,0.2-1.8,0.2h-4.6
		C107.8,51.2,107.8,97.9,107.8,97.9z M104.6,90.3H82.3l-1.1-10.2c-0.1-0.5-0.4-1-0.9-1.2l-13.7-4.6V68l0.1-0.1
		c0.1-0.1,0.3-0.2,0.4-0.3c0.6-0.5,1.3-1.1,1.9-1.7c0.1-0.1,0.2-0.2,0.3-0.4c0.1-0.1,0.1-0.2,0.2-0.2l0,0c0.4-0.4,0.7-0.8,1.1-1.2
		c0.1-0.2,0.3-0.3,0.4-0.5c0.1-0.1,0.1-0.2,0.2-0.3l0.1-0.1c0.3-0.4,0.6-0.8,0.8-1.2c0.1-0.2,0.3-0.5,0.4-0.7l0.1-0.2
		c0.3-0.4,0.5-0.8,0.7-1.3c0.1-0.3,0.3-0.6,0.4-0.9l0.1-0.1c0.2-0.4,0.4-0.8,0.6-1.3c0.1-0.3,0.3-0.7,0.4-1l0,0
		c0.2-0.5,0.3-0.9,0.4-1.3c0.1-0.3,0.2-0.7,0.3-1.1c0.1-0.4,0.2-0.9,0.3-1.4c0.1-0.4,0.1-0.8,0.2-1.1c0-0.1,0-0.2,0-0.3
		s0-0.2,0.1-0.3v-0.2h3.7c0.8,0,1.4-0.6,1.4-1.4v-6.5c0-0.8-0.6-1.4-1.4-1.4h-2.4v-0.2c-0.1-0.5-0.2-0.9-0.4-1.5l0,0
		c-0.1-0.4-0.2-0.8-0.4-1.2c0-0.1,0-0.1-0.1-0.2c0-0.1,0-0.1-0.1-0.2c-0.1-0.3-0.2-0.7-0.4-1c0-0.1-0.1-0.1-0.1-0.2
		c0-0.1-0.1-0.3-0.1-0.4c-0.1-0.2-0.1-0.3-0.2-0.5l-0.1-0.2c-0.2-0.3-0.3-0.6-0.4-0.9c0,0,0,0,0-0.1l0,0L75,34.3h37.5
		c3.7,0,6.8,3,6.8,6.8s-3,6.8-6.8,6.8H106c-0.8,0-1.4,0.6-1.4,1.4V90.3z M82.8,89.8h21.3V49.3c0-1,0.9-1.9,1.9-1.9h6.5
		c3.4,0,6.3-2.8,6.3-6.3s-2.8-6.3-6.3-6.3H75.8c0.1,0.2,0.2,0.4,0.3,0.7l0.1,0.2c0.1,0.2,0.2,0.3,0.2,0.5c0.1,0.1,0.1,0.3,0.2,0.4
		c0,0.1,0.1,0.1,0.1,0.2c0.1,0.3,0.3,0.7,0.4,1c0,0.1,0,0.1,0.1,0.2c0,0.1,0,0.1,0,0.2c0.1,0.4,0.3,0.8,0.4,1.2l0,0
		c0.1,0.5,0.2,0.9,0.3,1.3h2c1,0,1.9,0.9,1.9,1.9v6.5c0,1-0.9,1.9-1.9,1.9h-3.3v0.1c0,0.1,0,0.2,0,0.3c0,0.3-0.1,0.7-0.2,1.1
		c-0.1,0.5-0.2,1-0.3,1.4c-0.1,0.4-0.2,0.8-0.3,1.1c-0.1,0.4-0.3,0.9-0.4,1.4l0,0c-0.1,0.3-0.2,0.7-0.4,1.1
		c-0.2,0.5-0.4,0.9-0.6,1.3l-0.1,0.1c-0.1,0.3-0.3,0.6-0.4,0.9c-0.2,0.4-0.5,0.8-0.7,1.3L73,61.5c-0.1,0.2-0.3,0.5-0.4,0.7
		c-0.3,0.4-0.6,0.8-0.8,1.2l-0.1,0.1c-0.1,0.1-0.1,0.2-0.2,0.3c-0.1,0.2-0.3,0.4-0.4,0.6c-0.4,0.4-0.7,0.9-1.1,1.3l0,0
		c-0.1,0.1-0.1,0.2-0.2,0.2c-0.1,0.1-0.2,0.3-0.4,0.4c-0.6,0.6-1.3,1.2-1.9,1.8c-0.1,0.1-0.2,0.2-0.3,0.3V74l13.4,4.5
		c0.7,0.2,1.2,0.9,1.3,1.6L82.8,89.8z M63.8,84.9l-4.9-1.6l4.9-2.4V84.9z M60.3,83.2l2.9,1v-2.4L60.3,83.2z M47,84.9v-4.1l4.9,2.4
		L47,84.9z M47.5,81.7v2.4l2.9-1L47.5,81.7z M55.4,82L47,77.8v-8l0.4,0.2c0,0,0,0,0.1,0c1.2,0.6,2.5,1,3.8,1.3l0,0h0.1h0.1
		c0.6,0.1,1.1,0.2,1.7,0.3h0.1c0.1,0,0.1,0,0.2,0c0.8,0.1,1.4,0.1,2,0.1s1.2,0,2-0.1c0.1,0,0.1,0,0.2,0h0.1c0.6-0.1,1.2-0.2,1.7-0.3
		h0.1c0.1,0,0.1,0,0.2,0c1.3-0.3,2.6-0.8,3.8-1.3c0,0,0,0,0.1,0l0,0l0.4-0.2v8L55.4,82z M47.5,77.5l7.9,3.9l7.9-3.9v-6.8
		c-1.1,0.5-2.3,0.9-3.6,1.2c-0.1,0-0.1,0-0.2,0h-0.1c-0.6,0.1-1.2,0.2-1.8,0.3h-0.1c-0.1,0-0.1,0-0.2,0c-0.8,0.1-1.4,0.1-2,0.1
		s-1.2,0-2-0.1c-0.1,0-0.1,0-0.2,0H53c-0.6-0.1-1.2-0.2-1.8-0.3h-0.1H51c-1.2-0.3-2.4-0.7-3.6-1.2L47.5,77.5L47.5,77.5z M55.4,69.1
		c-0.8,0-1.6-0.1-2.3-0.2l0,0l0,0c-0.7-0.1-1.5-0.3-2.2-0.5l0,0h-0.1c-0.7-0.2-1.4-0.5-2.1-0.9h-0.1c0,0,0,0-0.1,0
		c-0.7-0.4-1.4-0.7-2-1.2l0,0l-0.1-0.1c-0.3-0.2-0.6-0.4-0.9-0.7c-4.4-3.7-7.2-8.8-8-14.6v-0.3h36v0.3V51c0,0.1,0,0.1,0,0.2
		c0,0.3-0.1,0.5-0.1,0.8v0.1C73,52.6,73,53,72.8,53.5c-0.1,0.3-0.2,0.6-0.3,0.9c-0.1,0.4-0.3,0.8-0.4,1.2c-0.1,0.3-0.2,0.6-0.3,0.9
		c-0.2,0.4-0.3,0.8-0.5,1.2c-0.1,0.2-0.3,0.5-0.4,0.9c-0.2,0.4-0.4,0.8-0.6,1.1l-0.1,0.2c-0.1,0.2-0.3,0.4-0.4,0.6
		c-0.3,0.4-0.5,0.8-0.8,1.1c-0.1,0.1-0.1,0.2-0.2,0.2c-0.1,0.2-0.2,0.3-0.4,0.5c-0.3,0.4-0.6,0.7-1,1.1c-0.1,0.1-0.1,0.1-0.2,0.2
		c-0.1,0.1-0.2,0.2-0.3,0.3c-0.6,0.6-1.1,1.1-1.6,1.5c-0.3,0.3-0.6,0.5-0.9,0.7c-0.6,0.4-1.3,0.9-2,1.2l0,0h-0.1
		c-0.7,0.3-1.4,0.6-2.1,0.9h-0.1l0,0c-0.7,0.2-1.5,0.4-2.2,0.5c0,0,0,0-0.1,0C56.9,69.1,56.2,69.1,55.4,69.1z M53.1,68.4L53.1,68.4
		c1.5,0.2,3.1,0.2,4.5,0l0,0l0,0c0.7-0.1,1.4-0.3,2.1-0.5l0,0h0.1c0.7-0.2,1.4-0.5,2-0.8c0,0,0,0,0.1,0H62c0.7-0.4,1.4-0.7,2-1.2
		c0.3-0.2,0.6-0.4,0.9-0.7c0.5-0.4,1.1-0.9,1.6-1.5c0.1-0.1,0.2-0.2,0.3-0.3c0.1-0.1,0.1-0.1,0.2-0.2c0.4-0.4,0.7-0.7,1-1.1
		c0.1-0.1,0.2-0.3,0.3-0.4c0.1-0.1,0.1-0.2,0.2-0.2c0.2-0.3,0.5-0.7,0.8-1.1c0.1-0.2,0.3-0.4,0.4-0.6l0.1-0.2
		c0.2-0.3,0.4-0.7,0.6-1.1c0.2-0.3,0.3-0.6,0.4-0.8c0.2-0.4,0.4-0.8,0.5-1.2c0.1-0.3,0.2-0.6,0.3-0.9c0.1-0.4,0.3-0.8,0.4-1.2
		c0.1-0.3,0.2-0.6,0.3-0.9c0.1-0.4,0.2-0.9,0.3-1.2v-0.1c0-0.3,0.1-0.5,0.1-0.8l0,0H38c0.8,5.5,3.6,10.4,7.8,13.9
		c0.3,0.2,0.6,0.4,0.8,0.6l0,0l0.1,0.1c0.6,0.4,1.3,0.8,1.9,1.2c0,0,0,0,0.1,0l0,0c0.6,0.3,1.3,0.6,2,0.8h0.1l0,0
		C51.7,68.1,52.4,68.3,53.1,68.4z M78.5,47.9H32.3v-3.8h2.2c0.7,0,1.2-0.5,1.3-1.2c1.2-7.7,6.5-15.2,12.9-18.4l0.4-0.2v5.1h2.7V18
		h7.1v11.4h2.7v-5.1l0.4,0.2c3.6,1.8,7,5,9.4,9.1c0,0,0,0,0,0.1c1.3,2.2,2.3,4.5,2.9,6.8c0,0.1,0,0.1,0,0.2v0.1
		c0.2,0.8,0.4,1.5,0.5,2.2s0.7,1.2,1.3,1.2h2.2v3.7H78.5z M32.8,47.4H78v-2.7h-1.6c-0.9,0-1.7-0.7-1.9-1.6c-0.1-0.6-0.2-1.3-0.4-2.1
		v-0.1c0-0.1,0-0.1,0-0.2c-0.6-2.3-1.6-4.6-2.9-6.7c0,0,0,0,0-0.1c-2.3-3.8-5.4-6.9-8.8-8.7V30h-3.8V18.6h-6V30h-3.8v-4.7
		C42.5,28.5,37.5,35.7,36.3,43c-0.1,0.9-0.9,1.6-1.9,1.6h-1.6V47.4z"/>
</g>
</svg>
