<?xml version="1.0" encoding="utf-8"?>
<!-- Generator: Adobe Illustrator 22.1.0, SVG Export Plug-In . SVG Version: 6.00 Build 0)  -->
<svg version="1.1" id="Слой_1" xmlns="http://www.w3.org/2000/svg" xmlns:xlink="http://www.w3.org/1999/xlink" x="0px" y="0px"
	 viewBox="0 0 148.3 113.2" style="enable-background:new 0 0 148.3 113.2;" xml:space="preserve">
<style type="text/css">
	.st0{fill:#00802E;}
</style>
<g>
	<g>
		<path class="st0" d="M86.9,33.6c-3.8,0-6.8,3.1-6.8,6.8s3.1,6.8,6.8,6.8c3.8,0,6.8-3.1,6.8-6.8S90.7,33.6,86.9,33.6z M86.9,43.9
			c-1.9,0-3.4-1.5-3.4-3.4S85,37,86.9,37s3.4,1.5,3.4,3.4S88.8,43.9,86.9,43.9z"/>
		<path class="st0" d="M86.9,47.7c-4,0-7.2-3.2-7.2-7.2s3.2-7.2,7.2-7.2s7.2,3.2,7.2,7.2C94.1,44.4,90.9,47.7,86.9,47.7z M86.9,34
			c-3.6,0-6.5,2.9-6.5,6.5s2.9,6.5,6.5,6.5s6.5-2.9,6.5-6.5S90.5,34,86.9,34z M86.9,44.2c-2.1,0-3.8-1.7-3.8-3.8s1.7-3.8,3.8-3.8
			c2.1,0,3.8,1.7,3.8,3.8S89,44.2,86.9,44.2z M86.9,37.4c-1.7,0-3.1,1.4-3.1,3.1c0,1.7,1.4,3.1,3.1,3.1s3.1-1.4,3.1-3.1
			C90,38.8,88.6,37.4,86.9,37.4z"/>
	</g>
	<g>
		<path class="st0" d="M80.2,80.1V60.5c0-1-0.7-1.7-1.7-1.7H58.3c-1,0-1.7,0.7-1.7,1.7v19.7c0,1,0.7,1.7,1.7,1.7h20.2
			C79.5,81.8,80.2,81.2,80.2,80.1z M66.7,78.4H60v-6.5h6.7V78.4z M66.7,68.7H60v-6.5h6.7V68.7z M76.8,78.4h-6.7v-6.5h6.7V78.4z
			 M76.8,68.7h-6.7v-6.5h6.7V68.7z"/>
		<path class="st0" d="M78.5,82.2H58.3c-1.2,0-2.1-0.8-2.1-2.1V60.5c0-1.2,0.8-2.1,2.1-2.1h20.2c1.2,0,2.1,0.8,2.1,2.1v19.7
			C80.6,81.4,79.7,82.2,78.5,82.2z M58.3,59.1c-0.8,0-1.4,0.5-1.4,1.4v19.7c0,0.8,0.5,1.4,1.4,1.4h20.2c0.8,0,1.4-0.5,1.4-1.4V60.5
			c0-0.8-0.5-1.4-1.4-1.4H58.3z M77.1,78.8h-7.4v-7.2h7.4V78.8z M70.5,78.1h6v-5.8h-6V78.1z M67.1,78.8h-7.4v-7.2h7.4V78.8z
			 M60.4,78.1h6v-5.8h-6V78.1z M77.1,69h-7.4v-7.2h7.4V69z M70.5,68.3h6v-5.8h-6V68.3z M67.1,69h-7.4v-7.2h7.4V69z M60.4,68.3h6
			v-5.8h-6V68.3z"/>
	</g>
	<g>
		<path class="st0" d="M95.1,81.8h20.2c1,0,1.7-0.7,1.7-1.7V60.5c0-1-0.7-1.7-1.7-1.7H95.1c-1,0-1.7,0.7-1.7,1.7v19.7
			C93.4,81.2,94.1,81.8,95.1,81.8z M106.9,62.2h6.7v6.5h-6.7V62.2z M106.9,72.1h6.7v6.5h-6.7V72.1z M96.8,62.2h6.7v6.5h-6.7V62.2z
			 M96.8,72.1h6.7v6.5h-6.7V72.1z"/>
		<path class="st0" d="M115.3,82.2H95.1c-1.2,0-2.1-0.8-2.1-2.1V60.5c0-1.2,0.8-2.1,2.1-2.1h20.2c1.2,0,2.1,0.8,2.1,2.1v19.7
			C117.3,81.4,116.5,82.2,115.3,82.2z M95.1,59.1c-0.8,0-1.4,0.5-1.4,1.4v19.7c0,0.8,0.5,1.4,1.4,1.4h20.2c0.8,0,1.4-0.5,1.4-1.4
			V60.5c0-0.8-0.5-1.4-1.4-1.4H95.1z M113.9,78.9h-7.4v-7.2h7.4V78.9z M107.3,78.2h6v-5.8h-6V78.2z M103.8,78.9h-7.4v-7.2h7.4V78.9z
			 M97.2,78.2h6v-5.8h-6V78.2z M113.9,69h-7.4v-7.2h7.4V69z M107.3,68.3h6v-5.8h-6V68.3z M103.8,69h-7.4v-7.2h7.4V69z M97.2,68.3h6
			v-5.8h-6V68.3z"/>
	</g>
	<g>
		<path class="st0" d="M30.6,89.4v20h-6.8c-1,0-1.7,0.7-1.7,1.7s0.7,1.7,1.7,1.7c48.6,0,59.5,0,103.3,0c1,0,1.7-0.7,1.7-1.7
			s-0.7-1.7-1.7-1.7H124V56.9l1.9,1.9c0.7,0.7,1.7,0.7,2.4,0c0.7-0.7,0.7-1.7,0-2.4L87.9,15.8c-0.7-0.7-1.7-0.7-2.4,0L45.2,56
			c-0.7,0.7-0.7,1.7,0,2.4s1.7,0.7,2.4,0l1.9-1.9v52.9H34v-20c6.3-0.9,11.1-6.2,11.1-12.8C45.1,70.4,40,53,32.3,53
			S19.5,70.6,19.5,76.5C19.5,83,24.5,88.5,30.6,89.4z M93.4,109.4h-13V102l0,0l0,0v-8.9c0-3.6,2.9-6.5,6.5-6.5s6.5,2.9,6.5,6.5
			V109.4z M120.8,109.4h-24v-5.8h23.9L120.8,109.4L120.8,109.4z M86.7,19.4l32,32h-64L86.7,19.4z M52.9,54.8h67.9v45.5h-24V93
			c0-5.5-4.4-9.9-9.9-9.9C81.4,83,77,87.5,77,93v7.4H53L52.9,54.8L52.9,54.8z M52.9,103.7h23.9v5.8H52.9V103.7z M32.3,56.4
			c4.4,0,9.4,14.2,9.4,20.2c0,5.3-4.3,9.4-9.4,9.4s-9.4-4.1-9.4-9.4C22.9,70.6,27.9,56.4,32.3,56.4z"/>
		<path class="st0" d="M127.1,113.2H23.8c-1.2,0-2.1-0.8-2.1-2.1s0.8-2.1,2.1-2.1h6.5V89.7c-3-0.5-5.7-2-7.8-4.4
			c-2.2-2.4-3.3-5.6-3.3-8.8c0-6.2,5.2-24,13.2-24s13.2,17.8,13.2,24c0,6.6-4.7,12.1-11.1,13.1V109h14.7V57.4l-1.3,1.3
			c-0.4,0.4-0.9,0.6-1.4,0.6s-1-0.2-1.4-0.6c-0.4-0.4-0.6-0.9-0.6-1.4s0.2-1,0.6-1.4l40.4-40.2c0.8-0.8,2.1-0.8,2.9,0l40.4,40.5
			c0.8,0.8,0.8,2.1,0,2.9c-0.8,0.8-2.1,0.8-2.9,0l-1.3-1.3V109h2.7c1.2,0,2.1,0.8,2.1,2.1S128.3,113.2,127.1,113.2z M23.8,109.7
			c-0.8,0-1.4,0.5-1.4,1.4c0,0.8,0.5,1.4,1.4,1.4h103.3c0.8,0,1.4-0.5,1.4-1.4c0-0.8-0.5-1.4-1.4-1.4h-3.4V56l2.5,2.5
			c0.5,0.5,1.3,0.5,1.9,0c0.5-0.5,0.5-1.3,0-1.9L87.7,16.1c-0.5-0.5-1.3-0.5-1.9,0L45.4,56.3c-0.3,0.3-0.4,0.6-0.4,0.9
			c0,0.3,0.1,0.7,0.4,0.9c0.3,0.3,0.6,0.4,0.9,0.4c0.3,0,0.7-0.1,0.9-0.4l2.5-2.5v54.1h-16V89.1H34c6.3-0.8,10.8-6.1,10.8-12.5
			c0-2.9-1.2-8.8-3.5-14c-1.5-3.5-4.7-9.3-9-9.3c-7.4,0-12.5,17.5-12.5,23.3c0,6.2,4.7,11.6,10.8,12.5h0.3v20.7h-7.1V109.7z
			 M77.1,109.9H52.5v-6.5h24.6V109.9z M53.2,109.2h23.2v-5.1H53.2V109.2z M121.1,109.7H96.5v-6.5h24.6V109.7z M97.2,109h23.2v-5.1
			H97.2V109z M93.7,109.7H80V93.1c0-3.8,3.1-6.9,6.9-6.9s6.9,3.1,6.9,6.9v16.6H93.7z M80.7,109H93V93.1c0-3.4-2.8-6.1-6.1-6.1
			c-3.4,0-6.1,2.8-6.1,6.1V109H80.7z M121.1,100.7H96.5V93c0-5.3-4.3-9.6-9.6-9.6c-5.3,0-9.6,4.3-9.6,9.6v7.7H52.7V54.8h0.2v-0.4
			h68.3v46.3H121.1z M97.2,100h23.2V55.2h-67V100h23.2v-7c0-5.7,4.6-10.3,10.3-10.3c5.7,0,10.3,4.6,10.3,10.3V100z M32.3,86.3
			c-5.4,0-9.8-4.4-9.8-9.8c0-3,1.3-8.2,3.1-12.5c1.3-3,3.8-8.1,6.7-8.1S37.7,61,39,64c1.8,4.3,3.1,9.4,3.1,12.5
			C42.1,81.9,37.7,86.3,32.3,86.3z M32.3,56.7c-1.8,0-4,2.9-6,7.6c-1.8,4.2-3,9.3-3,12.2c0,5,4.1,9.1,9.1,9.1s9.1-4.1,9.1-9.1
			c0-2.9-1.2-8-3-12.2C36.4,59.6,34.1,56.7,32.3,56.7z M119.6,51.8H53.9L86.7,19L119.6,51.8z M55.6,51.1h62.3L86.7,19.9L55.6,51.1z"
			/>
	</g>
</g>
</svg>
