<?xml version="1.0" encoding="utf-8"?>
<!-- Generator: Adobe Illustrator 22.1.0, SVG Export Plug-In . SVG Version: 6.00 Build 0)  -->
<svg version="1.1" id="Слой_1" xmlns="http://www.w3.org/2000/svg" xmlns:xlink="http://www.w3.org/1999/xlink" x="0px" y="0px"
	 viewBox="0 0 148.3 113.2" style="enable-background:new 0 0 148.3 113.2;" xml:space="preserve">
<style type="text/css">
	.st0{fill:#00802E;}
</style>
<g>
	<path class="st0" d="M82.1,98.4h30.8V79.2H82.1V98.4z M86.7,83.7h21.7v10.1H86.7V83.7z"/>
	<path class="st0" d="M18.8,98.4H34V79.2H18.8V98.4z M23.3,83.7h6.1v10.1h-6.1V83.7z"/>
	<path class="st0" d="M76.2,45.8H18.8v16.4h57.4V45.8z M71.7,57.7H23.3v-7.3h48.4V57.7z"/>
	<path class="st0" d="M132.7,79.8c3.8-1.3,7.4-4.5,10.2-9.3c3.5-6,5.4-14,5.4-22.5s-1.9-16.4-5.4-22.5c-3.7-6.4-8.8-10-14.3-10
		s-10.6,3.6-14.3,10c-3.5,6-5.4,14.1-5.4,22.5c0,6.3,1.1,12.3,3.1,17.6h-1.2h-24V37.7H10.5v70.9H0v4.5h10.5h38.7h11.3h4.3h12.9h43.8
		h23.8v-4.5h-12.6V79.8z M128.5,20c8.2,0,15.2,12.8,15.2,27.9c0,12.6-4.8,23.5-11.1,26.9V61.7l7.3-12.5l-3.9-2.3l-3.5,5.9V40.1H128
		v21.2l-8.9-14.4l-3.8,2.4L128.1,70v5.9c-8.1-0.5-14.7-13.1-14.7-27.9C113.4,32.8,120.3,20,128.5,20z M15,108.6V42.3h67.1v23.3H49.2
		h-9.5v4.5h9.5v38.5H15z M64.9,108.6V83.7h8.3v24.9H64.9z M77.8,108.6V79.2H60.4v29.4h-6.7V70.1h57h3.3c0.1,0,0.2,0.2,0.3,0.3
		c0.8,1.5,1.8,2.8,2.8,3.9v34.2L77.8,108.6L77.8,108.6z M121.6,78.4c2,1.2,4.1,1.9,6.5,2v28.2h-6.5
		C121.6,108.6,121.6,78.4,121.6,78.4z"/>
</g>
</svg>
