<?xml version="1.0" encoding="utf-8"?>
<!-- Generator: Adobe Illustrator 22.1.0, SVG Export Plug-In . SVG Version: 6.00 Build 0)  -->
<svg version="1.1" id="Layer_1" xmlns="http://www.w3.org/2000/svg" xmlns:xlink="http://www.w3.org/1999/xlink" x="0px" y="0px"
	 viewBox="0 0 452.3 116" style="enable-background:new 0 0 452.3 116;" xml:space="preserve">
<style type="text/css">
	.st0{fill:#00802E;}
	.st1{fill:#2D2D2D;}
</style>
<g>
	<g>
		<g>
			<g>
				<g>
					<g>
						<path class="st0" d="M102.2,116c-4.2,0-8.2-1.6-11.1-4.6c-3-3-4.6-6.9-4.6-11.1c0-4.2,1.6-8.1,4.6-11.1c3-3,6.9-4.6,11.1-4.6
							c4.2,0,8.1,1.6,11.1,4.6c6.1,6.1,6.1,16.1,0,22.2C110.3,114.4,106.4,116,102.2,116z"/>
					</g>
					<g>
						<path class="st0" d="M16.8,32.2c-4.2,0-8.2-1.6-11.1-4.6c-3-3-4.6-6.9-4.6-11.1c0-4.2,1.6-8.1,4.6-11.1c3-3,6.9-4.6,11.1-4.6
							c4.2,0,8.1,1.6,11.1,4.6c3,3,4.6,6.9,4.6,11.1c0,4.2-1.6,8.2-4.6,11.1C24.9,30.5,20.9,32.2,16.8,32.2z"/>
					</g>
					<path class="st0" d="M101.5,31.7c-4.2,0-8.2-1.6-11.1-4.6c-6.1-6.1-6.1-16.1,0-22.2c3-3,6.9-4.6,11.1-4.6
						c4.2,0,8.1,1.6,11.1,4.6c6.1,6.1,6.1,16.1,0,22.2C109.6,30.1,105.7,31.7,101.5,31.7z"/>
					<g>
						<path class="st0" d="M17.2,116C13,116,9,114.4,6,111.4c-3-3-4.6-6.9-4.6-11.1c0-4.2,1.6-8.1,4.6-11.1c0.6-0.6,1.3-1.2,2.2-1.8
							C8.5,87.2,8.8,87,9,86.9c0.6-0.3,1.2-0.6,1.7-0.9c0.3-0.1,0.6-0.3,0.9-0.4c0.6-0.2,1.2-0.4,1.9-0.6c0.1,0,0.3-0.1,0.4-0.1
							c0.1,0,0.2,0,0.2-0.1l3.5-0.2c0.4,0,0.9,0.1,1.4,0.1l0.2,0c0.1,0,0.3,0,0.4,0l0.1,0l0.2,0h0.1c0.3,0,0.5,0,0.8,0
							c6,0,12-2.6,16.3-7c4.3-4.5,6.7-10.5,6.6-16.5l0-0.2l0-0.2c0-0.2,0-0.3-0.1-0.5c0-0.2,0-0.4-0.1-0.6l0-0.4
							c0-0.3-0.1-0.6-0.1-0.9l0.3-3.5c0-0.1,0-0.2,0.1-0.3l0.1-0.2c0.2-0.7,0.3-1.3,0.6-2c0.1-0.4,0.3-0.6,0.4-0.9
							c0.3-0.6,0.6-1.2,0.9-1.7c0.1-0.2,0.3-0.5,0.5-0.7c0.6-0.9,1.2-1.6,1.8-2.2c3-3,6.9-4.6,11.1-4.6c4.2,0,8.2,1.6,11.1,4.6
							c6.1,6.1,6.1,16.1,0,22.2c-0.6,0.6-1.3,1.2-2.2,1.8c-0.3,0.2-0.5,0.3-0.8,0.5c-0.6,0.3-1.1,0.6-1.7,0.9
							c-0.3,0.1-0.6,0.3-0.9,0.4c-0.6,0.2-1.2,0.4-1.9,0.6l-0.4,0.1c-0.1,0-0.2,0.1-0.3,0.1l-3.5,0.3c-0.4,0-0.8-0.1-1.3-0.1l-0.3,0
							c-0.1,0-0.3,0-0.4,0l-0.1,0l-0.2,0h-0.1c-0.3,0-0.5,0-0.8,0c-6,0-12,2.6-16.3,7c-4.3,4.5-6.7,10.5-6.6,16.5l0,0.2l0,0.2
							c0,0.2,0,0.3,0.1,0.5c0,0.2,0,0.4,0.1,0.6c0,0.1,0,0.3,0.1,0.5c0,0.2,0.1,0.5,0.1,0.7v0.1l-0.3,3.4c0,0.1-0.1,0.5-0.2,0.6
							c-0.2,0.7-0.4,1.4-0.6,1.9c-0.1,0.3-0.2,0.6-0.4,0.9c-0.3,0.6-0.6,1.2-0.9,1.8c-0.1,0.2-0.3,0.5-0.5,0.8
							c-0.6,0.8-1.2,1.6-1.8,2.2C25.3,114.4,21.4,116,17.2,116L17.2,116z"/>
					</g>
					<path class="st0" d="M59.6,116c-4.2,0-8.2-1.6-11.1-4.6c-3-3-4.6-6.9-4.6-11.1c0-4.2,1.6-8.1,4.6-11.1c0.6-0.6,1.3-1.2,2.2-1.8
						c0.2-0.2,0.5-0.3,0.7-0.5c0.6-0.3,1.1-0.6,1.7-0.9c0.3-0.1,0.6-0.3,0.9-0.4c0.6-0.2,1.2-0.4,1.9-0.6c0,0,0.6-0.2,0.6-0.2
						l3.6-0.3c0.4,0,0.9,0.1,1.3,0.1l0.3,0c0.2,0,0.3,0,0.5,0c0.1,0,0.1,0,0.2,0l0.1,0l0.1,0c0.3,0,0.5,0,0.8,0c6,0,12-2.6,16.3-7
						c4.3-4.5,6.7-10.5,6.6-16.5l0-0.7l-0.1-0.1c0,0,0-0.1,0-0.1c0-0.2,0-0.3,0-0.5l-0.1-0.5c0-0.3-0.1-0.6-0.1-0.8l0.2-3.4
						c0-0.1,0.1-0.5,0.2-0.6c0.2-0.8,0.4-1.4,0.6-1.9c0.1-0.3,0.2-0.6,0.4-0.9c0.3-0.5,0.5-1.1,0.9-1.7l0.1-0.1
						c0.1-0.2,0.2-0.4,0.4-0.6c0.6-0.9,1.2-1.6,1.8-2.2c3-3,6.9-4.6,11.1-4.6c4.2,0,8.1,1.6,11.1,4.6c6.1,6.1,6.1,16.1,0,22.2
						c-0.6,0.6-1.3,1.2-2.2,1.8c-0.2,0.1-0.3,0.2-0.5,0.3l-0.3,0.2c-0.5,0.3-1.1,0.6-1.7,0.9c-0.3,0.1-0.6,0.3-0.9,0.4
						c-0.6,0.2-1.2,0.4-1.9,0.6c-0.2,0-0.3,0.1-0.4,0.1c-0.1,0-0.2,0-0.2,0.1l-3.5,0.2c-0.5,0-1.1-0.1-1.6-0.2c-0.2,0-0.3,0-0.5,0
						c-0.1,0-0.1,0-0.2,0l-0.3,0c-0.3,0-0.5,0-0.8,0c-6,0-12,2.6-16.3,7c-4.3,4.5-6.7,10.5-6.5,16.5l0,0.2l0,0.2
						c0,0.2,0,0.4,0.1,0.5c0,0.2,0,0.4,0,0.5c0,0.1,0,0.3,0.1,0.5c0,0.3,0.1,0.5,0.1,0.8l-0.3,3.5c0,0.1-0.2,0.5-0.2,0.5
						c-0.2,0.7-0.4,1.4-0.6,2c-0.1,0.3-0.2,0.6-0.4,0.8l0,0.1c-0.3,0.6-0.6,1.1-0.9,1.7c-0.2,0.3-0.3,0.5-0.5,0.8
						c-0.6,0.9-1.2,1.6-1.8,2.2C67.8,114.4,63.8,116,59.6,116L59.6,116z"/>
					<path class="st0" d="M17.2,73.6C13,73.6,9,71.9,6,69c-3-3-4.6-6.9-4.6-11.1c0-4.2,1.6-8.1,4.6-11.1c0.6-0.6,1.3-1.2,2.2-1.8
						c0.2-0.2,0.5-0.3,0.8-0.5c0.5-0.3,1.1-0.6,1.7-0.9c0.3-0.1,0.6-0.3,0.9-0.4c0.6-0.2,1.2-0.4,1.9-0.5l0.4-0.1
						c0.1,0,0.1,0,0.2-0.1l3.6-0.3c0.5,0,1,0.1,1.5,0.2l0.1,0c0.2,0,0.3,0,0.5,0c0.1,0,0.1,0,0.2,0l0.2,0l0.1,0c0.3,0,0.5,0,0.8,0
						c6,0,12-2.6,16.3-7c4.3-4.5,6.7-10.5,6.5-16.5l0-0.2l0-0.2c0-0.2,0-0.4-0.1-0.6c0-0.2,0-0.3,0-0.5L43.7,17
						c0-0.3-0.1-0.6-0.1-0.9l0.2-3.3l0-0.1v-0.1c0-0.1,0.1-0.5,0.1-0.5c0.2-0.8,0.4-1.5,0.6-2c0.1-0.3,0.3-0.6,0.4-0.9
						c0.3-0.6,0.6-1.1,0.9-1.7l0.1-0.1c0.1-0.2,0.3-0.5,0.4-0.7c0.6-0.9,1.2-1.6,1.8-2.2c3-3,6.9-4.6,11.1-4.6
						c4.2,0,8.2,1.6,11.1,4.6c6.1,6.1,6.1,16.1,0,22.2c-0.6,0.6-1.3,1.2-2.2,1.8c-0.2,0.2-0.4,0.3-0.7,0.4l-0.1,0.1
						c-0.6,0.3-1.1,0.6-1.7,0.9c-0.3,0.1-0.6,0.3-0.9,0.4c-0.6,0.2-1.2,0.4-1.9,0.6c-0.1,0-0.3,0.1-0.4,0.1c-0.1,0-0.2,0-0.2,0.1
						l-3.5,0.2c-0.4,0-0.9-0.1-1.4-0.1l-0.2,0c-0.2,0-0.3,0-0.5,0c-0.1,0-0.1,0-0.2,0l-0.1,0l-0.2,0c-0.3,0-0.5,0-0.8,0
						c-6,0-12,2.6-16.3,7c-4.3,4.5-6.7,10.5-6.6,16.5l0,0.2l0,0.2c0,0.2,0,0.4,0.1,0.5c0,0.2,0,0.4,0,0.6c0,0.1,0,0.3,0.1,0.5
						c0,0.3,0.1,0.5,0.1,0.8l-0.3,3.4c0,0.1,0,0.2-0.1,0.3l-0.1,0.3c-0.2,0.8-0.4,1.4-0.6,2c-0.1,0.3-0.3,0.6-0.4,0.9
						c-0.3,0.6-0.6,1.1-0.9,1.7c-0.2,0.3-0.3,0.5-0.5,0.8c-0.6,0.9-1.2,1.6-1.8,2.2C25.3,71.9,21.4,73.6,17.2,73.6L17.2,73.6z"/>
				</g>
			</g>
		</g>
	</g>
	<g>
		<path class="st1" d="M152.9,93.4V22.6h15v70.8H152.9z"/>
		<path class="st1" d="M248.6,93.4h-19.1l-30.8-53.6h-0.4c0.6,9.5,0.9,16.2,0.9,20.2v33.3h-13.4V22.6h18.9l30.8,53h0.3
			c-0.5-9.2-0.7-15.7-0.7-19.5V22.6h13.5V93.4z"/>
		<path class="st1" d="M307.2,93.4h-40.8V22.6h40.8v12.3h-25.8v15.6h24v12.3h-24V81h25.8V93.4z"/>
		<path class="st1" d="M363.8,73.8c0,6.4-2.3,11.4-6.9,15.1c-4.6,3.7-11,5.5-19.2,5.5c-7.6,0-14.2-1.4-20.1-4.3v-14
			c4.8,2.1,8.8,3.6,12.1,4.5c3.3,0.9,6.3,1.3,9.1,1.3c3.3,0,5.8-0.6,7.6-1.9c1.8-1.3,2.6-3.1,2.6-5.6c0-1.4-0.4-2.6-1.2-3.7
			c-0.8-1.1-1.9-2.1-3.4-3.1c-1.5-1-4.6-2.6-9.2-4.8c-4.3-2-7.6-4-9.7-5.9c-2.2-1.9-3.9-4.1-5.2-6.5s-1.9-5.4-1.9-8.7
			c0-6.3,2.1-11.2,6.4-14.8c4.2-3.6,10.1-5.4,17.6-5.4c3.7,0,7.2,0.4,10.5,1.3c3.3,0.9,6.8,2.1,10.5,3.7l-4.8,11.7
			c-3.8-1.5-6.9-2.6-9.4-3.2c-2.5-0.6-4.9-0.9-7.3-0.9c-2.8,0-5,0.7-6.5,2c-1.5,1.3-2.3,3.1-2.3,5.2c0,1.3,0.3,2.5,0.9,3.5
			c0.6,1,1.6,1.9,2.9,2.9c1.3,0.9,4.5,2.6,9.5,5c6.6,3.2,11.2,6.3,13.6,9.5C362.6,65.3,363.8,69.2,363.8,73.8z"/>
		<path class="st1" d="M376.6,93.4V22.6h15v70.8H376.6z"/>
		<path class="st1" d="M451.3,73.8c0,6.4-2.3,11.4-6.9,15.1c-4.6,3.7-11,5.5-19.2,5.5c-7.6,0-14.2-1.4-20.1-4.3v-14
			c4.8,2.1,8.8,3.6,12.1,4.5c3.3,0.9,6.3,1.3,9.1,1.3c3.3,0,5.8-0.6,7.6-1.9c1.8-1.3,2.6-3.1,2.6-5.6c0-1.4-0.4-2.6-1.2-3.7
			c-0.8-1.1-1.9-2.1-3.4-3.1c-1.5-1-4.6-2.6-9.2-4.8c-4.3-2-7.6-4-9.7-5.9c-2.2-1.9-3.9-4.1-5.2-6.5s-1.9-5.4-1.9-8.7
			c0-6.3,2.1-11.2,6.4-14.8c4.2-3.6,10.1-5.4,17.6-5.4c3.7,0,7.2,0.4,10.5,1.3c3.3,0.9,6.8,2.1,10.5,3.7l-4.8,11.7
			c-3.8-1.5-6.9-2.6-9.4-3.2c-2.5-0.6-4.9-0.9-7.3-0.9c-2.8,0-5,0.7-6.5,2c-1.5,1.3-2.3,3.1-2.3,5.2c0,1.3,0.3,2.5,0.9,3.5
			c0.6,1,1.6,1.9,2.9,2.9c1.3,0.9,4.5,2.6,9.5,5c6.6,3.2,11.2,6.3,13.6,9.5C450.1,65.3,451.3,69.2,451.3,73.8z"/>
	</g>
</g>
</svg>
