<?xml version="1.0" encoding="utf-8"?>
<!-- Generator: Adobe Illustrator 22.1.0, SVG Export Plug-In . SVG Version: 6.00 Build 0)  -->
<svg version="1.1" id="Слой_1" xmlns="http://www.w3.org/2000/svg" xmlns:xlink="http://www.w3.org/1999/xlink" x="0px" y="0px"
	 viewBox="0 0 148.3 113.2" style="enable-background:new 0 0 148.3 113.2;" xml:space="preserve">
<style type="text/css">
	.st0{fill:#00802E;}
</style>
<g>
	<g>
		<path class="st0" d="M74.1,21.9c-1.2,0-2.2-1-2.2-2.2V11c0-1.2,1-2.2,2.2-2.2s2.2,1,2.2,2.2v8.7C76.3,20.9,75.3,21.9,74.1,21.9z"
			/>
	</g>
	<g>
		<path class="st0" d="M108.9,47.9h-8.7c-1.2,0-2.2-1-2.2-2.2s1-2.2,2.2-2.2h8.7c1.2,0,2.2,1,2.2,2.2S110.1,47.9,108.9,47.9z"/>
	</g>
	<g>
		<path class="st0" d="M48.1,47.9h-8.7c-1.2,0-2.2-1-2.2-2.2s1-2.2,2.2-2.2h8.7c1.2,0,2.2,1,2.2,2.2S49.3,47.9,48.1,47.9z"/>
	</g>
	<g>
		<path class="st0" d="M92.6,29.5c-0.6,0-1.1-0.2-1.5-0.6c-0.8-0.8-0.8-2.2,0-3.1l6.1-6.1c0.8-0.8,2.2-0.8,3.1,0
			c0.8,0.8,0.8,2.2,0,3.1l-6.1,6.1C93.7,29.3,93.1,29.5,92.6,29.5z"/>
	</g>
	<g>
		<path class="st0" d="M55.7,29.5c-0.6,0-1.1-0.2-1.5-0.6L48,22.7c-0.8-0.8-0.8-2.2,0-3.1s2.2-0.8,3.1,0l6.1,6.1
			c0.8,0.8,0.8,2.2,0,3.1C56.8,29.3,56.3,29.5,55.7,29.5z"/>
	</g>
	<g>
		<g>
			<path class="st0" d="M68.4,104.5h-7.3c-10.8,0-19.6-8.8-19.6-19.6V67.5c0-3.6,2.9-6.5,6.5-6.5c0.8,0,1.7,0.2,2.4,0.5
				c0.8-2.8,3.3-4.8,6.3-4.8c0.8,0,1.7,0.2,2.4,0.5c0.8-2.8,3.3-4.8,6.3-4.8c0.8,0,1.5,0.1,2.2,0.4v-6.9c0-3.6,2.9-6.5,6.5-6.5
				s6.5,2.9,6.5,6.5v26.4l3.6-2.4c4.4-2.9,10.2-1.9,13.3,2.3c1.9,2.5,1.7,6-0.4,8.3l-17.5,19C76.8,102.7,72.7,104.5,68.4,104.5z
				 M48.1,65.3c-1.2,0-2.2,1-2.2,2.2v17.4c0,8.4,6.8,15.2,15.2,15.2h7.3c3,0,6-1.3,8-3.5L94,77.4c0.7-0.8,0.8-1.9,0.1-2.8
				c-1.8-2.3-5-2.9-7.5-1.3l-7,4.7c-0.7,0.4-1.5,0.5-2.2,0.1s-1.2-1.1-1.2-1.9V45.8c0-1.2-1-2.2-2.2-2.2s-2.2,1-2.2,2.2v23.9
				c0,1.2-1,2.2-2.2,2.2s-2.2-1-2.2-2.2V58.8c0-1.2-1-2.2-2.2-2.2s-2.2,1-2.2,2.2v10.9c0,1.2-1,2.2-2.2,2.2s-2.2-1-2.2-2.2v-6.5
				c0-1.2-1-2.2-2.2-2.2s-2.2,1-2.2,2.2v6.5c0,1.2-1,2.2-2.2,2.2s-2.2-1-2.2-2.2v-2.2C50.2,66.3,49.3,65.3,48.1,65.3z"/>
		</g>
		<g>
			<path class="st0" d="M78.5,113.2c-1.2,0-2.2-1-2.2-2.2v-6.5H50.2v6.5c0,1.2-1,2.2-2.2,2.2s-2.2-1-2.2-2.2v-8.7
				c0-1.2,1-2.2,2.2-2.2h30.4c1.2,0,2.2,1,2.2,2.2v8.7C80.7,112.2,79.7,113.2,78.5,113.2z"/>
		</g>
	</g>
	<g>
		<path class="st0" d="M87.2,47.9c-1.2,0-2.2-1-2.2-2.2c0-6-4.9-10.9-10.9-10.9s-10.9,4.9-10.9,10.9c0,1.2-1,2.2-2.2,2.2
			s-2.2-1-2.2-2.2c0-8.4,6.8-15.2,15.2-15.2s15.2,6.8,15.2,15.2C89.4,47,88.4,47.9,87.2,47.9z"/>
	</g>
</g>
</svg>
