<?xml version="1.0" encoding="utf-8"?>
<!-- Generator: Adobe Illustrator 22.1.0, SVG Export Plug-In . SVG Version: 6.00 Build 0)  -->
<svg version="1.1" id="Слой_1" xmlns="http://www.w3.org/2000/svg" xmlns:xlink="http://www.w3.org/1999/xlink" x="0px" y="0px"
	 viewBox="0 0 148.3 113.2" style="enable-background:new 0 0 148.3 113.2;" xml:space="preserve">
<style type="text/css">
	.st0{fill:#00802E;}
</style>
<g>
	<g>
		<path class="st0" d="M41.4,24.4h-1.9c-1.1,0-1.9,0.9-1.9,1.9s0.9,1.9,1.9,1.9h1.9c1.1,0,1.9-0.9,1.9-1.9S42.5,24.4,41.4,24.4z"/>
		<path class="st0" d="M41.4,28.4h-1.9c-1.2,0-2.1-1-2.1-2.1s1-2.1,2.1-2.1h1.9c1.2,0,2.1,1,2.1,2.1S42.6,28.4,41.4,28.4z
			 M39.5,24.6c-1,0-1.7,0.8-1.7,1.7s0.8,1.7,1.7,1.7h1.9c1,0,1.7-0.8,1.7-1.7s-0.8-1.7-1.7-1.7H39.5z"/>
	</g>
	<g>
		<path class="st0" d="M128.1,97.5c-3.5,0-7-1.2-9.6-3.5l-0.5-0.4c7.7-9.8,12-22,12-34.6c0-1.1-0.9-1.9-1.9-1.9h-5.8V34
			c0-3.2-2.6-5.8-5.8-5.8H78c-3.2,0-5.8,2.6-5.8,5.8v34.7h-9.6V20.5c0-3.2-2.6-5.8-5.8-5.8h-7.7V5.1c0-1.1-0.9-1.9-1.9-1.9
			c-1.1,0-1.9,0.9-1.9,1.9v9.6h-7.7c-3.2,0-5.8,2.6-5.8,5.8v48.1H21.5h-0.2c-0.1,0-0.1,0-0.2,0h-0.2l-0.3,0.2
			c-0.1,0.1-0.2,0.1-0.3,0.2c-0.1,0.1-0.2,0.2-0.3,0.3c-0.1,0.2-0.3,0.4-0.3,0.6c0,0.1,0,0.3,0,0.4c0,0,0,0.1,0,0.2s0,0.1,0,0.2
			s0,0.1,0,0.2c1.7,7.7,5,14.9,9.6,21.2c-2.8-1.6-5.9-2.3-9.1-2.2c-1.1,0-1.9,0.9-1.9,1.9c0,1.1,0.9,1.9,1.9,1.9
			c3.5,0,6.9,1.2,9.6,3.5c2.2,1.8,4.8,3.1,7.5,3.8l0,0c1.4,0.3,2.9,0.5,4.4,0.5c4.3,0.1,8.6-1.4,11.9-4.2c5.6-4.6,13.7-4.6,19.3,0
			c6.9,5.6,16.9,5.6,23.8,0c5.6-4.6,13.7-4.6,19.3,0c3.4,2.8,7.7,4.3,12.1,4.2c1.1,0,1.9-0.9,1.9-1.9S129.1,97.5,128.1,97.5z
			 M106.9,57.1v-1.9h11.6v1.9H106.9z M91.5,57.1v-1.9H103v1.9H91.5z M85.7,57.1c-0.3,0-0.5,0.1-0.7,0.2c-0.2,0.1-0.5,0.2-0.6,0.4
			L76.1,66V55.2h11.6v1.9C87.7,57.1,85.7,57.1,85.7,57.1z M103,43.6v7.7H91.5v-7.7H103z M91.5,39.8v-7.7H103v7.7H91.5z M118.4,51.3
			h-11.6v-7.7h11.6V51.3z M87.6,51.3H76.1v-7.7h11.6L87.6,51.3L87.6,51.3z M118.4,34v5.8h-11.6v-7.7h9.6
			C117.6,32.1,118.4,32.9,118.4,34z M78,32.1h9.6v7.7H76.1V34C76.1,32.9,76.9,32.1,78,32.1z M35.6,20.5c0-1.1,0.9-1.9,1.9-1.9h19.3
			c1.1,0,1.9,0.9,1.9,1.9v3.9H47.2c-1.1,0-1.9,0.9-1.9,1.9s0.9,1.9,1.9,1.9h11.6v40.4H35.6V20.5z M94.6,94.1
			c-5.6,4.6-13.7,4.6-19.3,0c-6.9-5.6-16.9-5.6-23.8,0c-2.7,2.3-6.1,3.5-9.6,3.5c-0.9,0-1.9-0.1-2.8-0.2
			C31.8,90.7,26.5,82.1,24,72.5h50.2c0.3,0,0.5-0.1,0.7-0.2s0.5-0.2,0.6-0.4l11-11h39.7c-0.4,11.2-4.5,22-11.6,30.7
			c-2.5-1.2-5.3-1.9-8.1-1.8C102.2,89.8,97.9,91.3,94.6,94.1z"/>
		<path class="st0" d="M127.7,101.6c-4.3,0-8.5-1.5-11.8-4.3c-5.5-4.5-13.5-4.5-19,0c-3.4,2.8-7.7,4.3-12,4.3c-4.4,0-8.6-1.5-12-4.3
			c-5.5-4.5-13.5-4.5-19,0c-3.4,2.8-7.7,4.3-12,4.3c-1.5,0-3-0.1-4.4-0.5c-2.8-0.7-5.4-2-7.6-3.8c-2.6-2.3-6-3.5-9.5-3.4
			c-1.2,0-2.1-1-2.1-2.1c0-1.2,1-2.1,2.1-2.1c2.9-0.1,5.8,0.5,8.4,1.8c-4.4-6.2-7.5-13.1-9.1-20.5l0,0v-0.6c0-0.1,0-0.3,0-0.4l0,0
			c0.1-0.3,0.2-0.5,0.4-0.7c0.1-0.1,0.2-0.2,0.3-0.3c0.1-0.1,0.2-0.2,0.4-0.2l0.4-0.2h0.2c0.1,0,0.2,0,0.2,0h10.3V20.5
			c0-3.3,2.7-6,6-6h7.5V5.1c0-1.2,1-2.1,2.1-2.1c1.2,0,2.1,1,2.1,2.1v9.4h7.5c3.3,0,6,2.7,6,6v47.9H72V34c0-3.3,2.7-6,6-6h38.5
			c3.3,0,6,2.7,6,6v22.9h5.6c1.2,0,2.1,1,2.1,2.1c0,12.5-4.3,24.8-12,34.6l0.4,0.3c2.6,2.3,6,3.5,9.5,3.4l0,0c1.2,0,2.1,1,2.1,2.1
			c0,1.2-1,2.1-2.1,2.1C127.9,101.6,127.8,101.6,127.7,101.6z M106.4,93.5c3.5,0,6.9,1.2,9.8,3.5c3.3,2.8,7.6,4.3,11.9,4.2
			c1,0,1.7-0.8,1.7-1.7c0-1-0.8-1.7-1.7-1.7c-3.6,0.1-7-1.2-9.8-3.5l-0.7-0.5l0.1-0.2c7.8-9.8,12.1-22,12.1-34.5
			c0-1-0.8-1.7-1.7-1.7h-6V34c0-3.1-2.5-5.6-5.6-5.6H78c-3.1,0-5.6,2.5-5.6,5.6v34.9h-10V20.5c0-3.1-2.5-5.6-5.6-5.6h-7.9V5.1
			c0-1-0.8-1.7-1.7-1.7c-1,0-1.7,0.8-1.7,1.7v9.8h-7.9c-3.1,0-5.6,2.5-5.6,5.6v48.3H21.3c-0.1,0-0.1,0-0.2,0l0,0H21L20.6,69
			c-0.1,0-0.2,0.1-0.2,0.2l0,0c-0.1,0.1-0.2,0.1-0.2,0.2c-0.1,0.2-0.2,0.4-0.3,0.6c0,0.1,0,0.2,0,0.3l0,0v0.6
			c1.7,7.7,4.9,14.8,9.6,21.1l0.6,0.8l-0.8-0.5c-2.7-1.6-5.8-2.3-9-2.2c-1,0-1.7,0.8-1.7,1.7c0,1,0.8,1.7,1.7,1.7
			c3.6,0,7,1.2,9.8,3.5c2.2,1.8,4.7,3,7.5,3.7c1.4,0.3,2.9,0.5,4.3,0.5c4.3,0.1,8.5-1.4,11.8-4.2c5.7-4.7,13.9-4.7,19.5,0
			c6.8,5.5,16.7,5.5,23.5,0C99.5,94.7,102.9,93.5,106.4,93.5z M42.1,97.8c-0.1,0-0.2,0-0.2,0c-0.9,0-1.9-0.1-2.8-0.2H39l0,0
			c-7.4-6.7-12.6-15.3-15.2-24.9l-0.1-0.3h50.4c0.2,0,0.4,0,0.7-0.1c0.2-0.1,0.4-0.2,0.6-0.4l11-11.1h39.9V61
			c-0.4,11.2-4.6,22.1-11.6,30.8l-0.1,0.1l-0.1-0.1c-2.5-1.2-5.2-1.8-8-1.8c-4.3-0.1-8.5,1.4-11.8,4.2l0,0c-5.7,4.7-13.9,4.7-19.5,0
			c-6.8-5.5-16.7-5.5-23.6,0C49,96.5,45.6,97.8,42.1,97.8z M39.2,97.1c0.9,0.1,1.8,0.2,2.7,0.2c3.5,0.1,6.9-1.2,9.5-3.4
			c3.4-2.8,7.7-4.3,12-4.3s8.6,1.5,12,4.3c5.5,4.5,13.5,4.5,19,0l0,0c3.4-2.8,7.7-4.3,12.1-4.3c2.8-0.1,5.5,0.5,8,1.7
			c6.9-8.5,10.9-19.3,11.4-30.2H86.6l-10.9,11c-0.2,0.2-0.4,0.4-0.7,0.5c-0.2,0.1-0.5,0.2-0.8,0.2h-50C26.8,82.1,32,90.6,39.2,97.1z
			 M58.9,68.9H35.4V20.5c0-1.2,1-2.1,2.1-2.1h19.3c1.2,0,2.1,1,2.1,2.1v4.1H47.2c-1,0-1.7,0.8-1.7,1.7s0.8,1.7,1.7,1.7H59L58.9,68.9
			L58.9,68.9z M35.8,68.5h22.7v-40H47.2c-1.2,0-2.1-1-2.1-2.1s1-2.1,2.1-2.1h11.4v-3.7c0-1-0.8-1.7-1.7-1.7H37.6
			c-1,0-1.7,0.8-1.7,1.7L35.8,68.5L35.8,68.5z M75.9,66.4V55h12v2.3h-2.1c-0.2,0-0.4,0-0.7,0.1c-0.2,0.1-0.4,0.2-0.6,0.4L75.9,66.4z
			 M76.3,55.4v10.1l7.9-7.9c0.2-0.2,0.4-0.3,0.7-0.4c0.3-0.1,0.5-0.2,0.8-0.2h1.7v-1.5L76.3,55.4L76.3,55.4z M118.6,57.3h-12V55h12
			V57.3z M107.1,56.9h11.2v-1.5h-11.2V56.9z M103.2,57.3h-12V55h12V57.3z M91.7,56.9h11.2v-1.5H91.7V56.9z M118.6,51.5h-12v-8.1h12
			V51.5z M107.1,51.1h11.2v-7.3h-11.2V51.1z M103.2,51.5h-12v-8.1h12V51.5z M91.7,51.1h11.2v-7.3H91.7V51.1z M87.8,51.5h-12v-8.1h12
			V51.5z M76.3,51.1h11.2v-7.3H76.3V51.1z M118.6,40h-12v-8.1h9.8c1.2,0,2.1,1,2.1,2.1L118.6,40L118.6,40z M107.1,39.6h11.2V34
			c0-1-0.8-1.7-1.7-1.7h-9.4L107.1,39.6L107.1,39.6z M103.2,40h-12v-8.1h12V40z M91.7,39.6h11.2v-7.3H91.7V39.6z M87.8,40h-12v-6
			c0-1.2,1-2.1,2.1-2.1h9.8L87.8,40L87.8,40z M76.3,39.6h11.2v-7.3H78c-1,0-1.7,0.8-1.7,1.7V39.6z"/>
	</g>
	<g>
		<path class="st0" d="M120.4,109.1c-3.2,0-6.2-1.2-8.4-3.4c-6.1-5.7-15.6-5.7-21.7,0c-4.7,4.6-12.2,4.6-16.9,0
			c-6.1-5.7-15.6-5.7-21.7,0c-4.7,4.6-12.2,4.6-16.9,0c-2.9-2.8-6.8-4.3-10.8-4.3c-1.1,0-1.9,0.9-1.9,1.9c0,1.1,0.9,1.9,1.9,1.9
			c3.1,0,6.2,1.2,8.4,3.4c6.1,5.7,15.6,5.7,21.7,0c4.7-4.6,12.2-4.6,16.9,0c6.1,5.7,15.6,5.7,21.7,0c4.7-4.6,12.2-4.6,16.9,0
			c2.9,2.8,6.8,4.3,10.8,4.3c1.1,0,1.9-0.9,1.9-1.9S121.4,109.1,120.4,109.1z"/>
		<path class="st0" d="M120.3,113.2c-4.1,0-7.9-1.5-10.9-4.3c-4.6-4.5-11.9-4.5-16.6,0c-6.2,5.7-15.8,5.7-21.9,0
			c-4.6-4.5-11.9-4.5-16.6,0c-6.2,5.7-15.8,5.7-21.9,0c-2.2-2.2-5.1-3.4-8.2-3.4c0,0,0,0-0.1,0c-1.2,0-2.1-1-2.1-2.1
			c0-1.2,1-2.1,2.1-2.1h0.1c4.1,0,7.9,1.5,10.8,4.3c4.6,4.5,11.9,4.5,16.6,0c6.2-5.7,15.8-5.7,21.9,0c4.6,4.5,11.9,4.5,16.6,0
			c6.2-5.7,15.8-5.7,21.9,0c2.2,2.2,5.1,3.4,8.2,3.4c0,0,0,0,0.1,0l0,0c1.2,0,2.1,1,2.1,2.1C122.4,112.3,121.4,113.2,120.3,113.2
			C120.3,113.2,120.3,113.2,120.3,113.2z M101.1,105.1c3.2,0,6.3,1.2,8.6,3.5c2.9,2.7,6.6,4.2,10.6,4.2h0.1c1,0,1.7-0.8,1.7-1.7
			c0-1-0.8-1.7-1.7-1.7l0,0c0,0,0,0-0.1,0c-3.2,0-6.2-1.2-8.5-3.5c-6-5.6-15.4-5.6-21.4,0c-2.3,2.2-5.3,3.5-8.6,3.5
			c-3.2,0-6.3-1.2-8.6-3.5c-6-5.6-15.4-5.6-21.4,0c-2.3,2.2-5.3,3.5-8.6,3.5c-3.2,0-6.3-1.2-8.6-3.5c-2.9-2.7-6.6-4.2-10.6-4.2h-0.1
			c-1,0-1.7,0.8-1.7,1.7s0.8,1.7,1.7,1.7c3.2,0,6.3,1.2,8.6,3.5c6,5.6,15.4,5.6,21.4,0c2.3-2.2,5.3-3.5,8.6-3.5
			c3.2,0,6.3,1.2,8.6,3.5c6,5.6,15.4,5.6,21.4,0C94.8,106.3,97.9,105.1,101.1,105.1z"/>
	</g>
	<g>
		<path class="st0" d="M116.5,74.4c3.2,0,5.8-2.6,5.8-5.8c0-3.2-2.6-5.8-5.8-5.8c-3.2,0-5.8,2.6-5.8,5.8
			C110.7,71.9,113.3,74.4,116.5,74.4z M116.5,66.7c1.1,0,1.9,0.9,1.9,1.9c0,1.1-0.9,1.9-1.9,1.9c-1.1,0-1.9-0.9-1.9-1.9
			S115.5,66.7,116.5,66.7z"/>
		<path class="st0" d="M116.5,74.6c-3.3,0-6-2.7-6-6s2.7-6,6-6s6,2.7,6,6C122.5,72,119.8,74.6,116.5,74.6z M116.5,63.1
			c-3.1,0-5.6,2.5-5.6,5.6s2.5,5.6,5.6,5.6s5.6-2.5,5.6-5.6S119.6,63.1,116.5,63.1z M116.5,70.8c-1.2,0-2.1-1-2.1-2.1
			c0-1.2,1-2.1,2.1-2.1c1.2,0,2.1,1,2.1,2.1S117.7,70.8,116.5,70.8z M116.5,66.9c-1,0-1.7,0.8-1.7,1.7c0,1,0.8,1.7,1.7,1.7
			c1,0,1.7-0.8,1.7-1.7C118.2,67.7,117.5,66.9,116.5,66.9z"/>
	</g>
	<g>
		<path class="st0" d="M105,66.7h-5.8c-1.1,0-1.9,0.9-1.9,1.9c0,1.1,0.9,1.9,1.9,1.9h5.8c1.1,0,1.9-0.9,1.9-1.9S106,66.7,105,66.7z"
			/>
		<path class="st0" d="M105,70.8h-5.8c-1.2,0-2.1-1-2.1-2.1c0-1.2,1-2.1,2.1-2.1h5.8c1.2,0,2.1,1,2.1,2.1S106.1,70.8,105,70.8z
			 M99.2,66.9c-1,0-1.7,0.8-1.7,1.7c0,1,0.8,1.7,1.7,1.7h5.8c1,0,1.7-0.8,1.7-1.7c0-1-0.8-1.7-1.7-1.7H99.2z"/>
	</g>
	<g>
		<path class="st0" d="M91.5,66.7h-5.8c-1.1,0-1.9,0.9-1.9,1.9c0,1.1,0.9,1.9,1.9,1.9h5.8c1.1,0,1.9-0.9,1.9-1.9
			S92.5,66.7,91.5,66.7z"/>
		<path class="st0" d="M91.5,70.8h-5.8c-1.2,0-2.1-1-2.1-2.1c0-1.2,1-2.1,2.1-2.1h5.8c1.2,0,2.1,1,2.1,2.1S92.7,70.8,91.5,70.8z
			 M85.7,66.9c-1,0-1.7,0.8-1.7,1.7c0,1,0.8,1.7,1.7,1.7h5.8c1,0,1.7-0.8,1.7-1.7c0-1-0.8-1.7-1.7-1.7H85.7z"/>
	</g>
</g>
</svg>
