<?xml version="1.0" encoding="utf-8"?>
<!-- Generator: Adobe Illustrator 22.1.0, SVG Export Plug-In . SVG Version: 6.00 Build 0)  -->
<svg version="1.1" id="Layer_1" xmlns="http://www.w3.org/2000/svg" xmlns:xlink="http://www.w3.org/1999/xlink" x="0px" y="0px"
	 viewBox="0 0 467.5 116" style="enable-background:new 0 0 467.5 116;" xml:space="preserve">
<style type="text/css">
	.st0{fill:#00802E;}
	.st1{fill:#FFFFFF;}
</style>
<g>
	<g>
		<g>
			<g>
				<g>
					<g>
						<path class="st0" d="M101.2,116c-4.2,0-8.2-1.6-11.1-4.6c-3-3-4.6-6.9-4.6-11.1c0-4.2,1.6-8.1,4.6-11.1c3-3,6.9-4.6,11.1-4.6
							c4.2,0,8.1,1.6,11.1,4.6c6.1,6.1,6.1,16.1,0,22.2C109.3,114.4,105.4,116,101.2,116z"/>
					</g>
					<g>
						<path class="st0" d="M15.7,32.2c-4.2,0-8.2-1.6-11.1-4.6c-3-3-4.6-6.9-4.6-11.1c0-4.2,1.6-8.1,4.6-11.1c3-3,6.9-4.6,11.1-4.6
							c4.2,0,8.1,1.6,11.1,4.6c3,3,4.6,6.9,4.6,11.1c0,4.2-1.6,8.2-4.6,11.1C23.9,30.5,19.9,32.2,15.7,32.2z"/>
					</g>
					<path class="st0" d="M100.5,31.7c-4.2,0-8.2-1.6-11.1-4.6c-6.1-6.1-6.1-16.1,0-22.2c3-3,6.9-4.6,11.1-4.6
						c4.2,0,8.1,1.6,11.1,4.6c6.1,6.1,6.1,16.1,0,22.2C108.6,30.1,104.7,31.7,100.5,31.7z"/>
					<g>
						<path class="st0" d="M16.1,116c-4.2,0-8.2-1.6-11.1-4.6c-3-3-4.6-6.9-4.6-11.1c0-4.2,1.6-8.1,4.6-11.1
							c0.6-0.6,1.3-1.2,2.2-1.8C7.5,87.2,7.8,87,8,86.9c0.6-0.3,1.2-0.6,1.7-0.9c0.3-0.1,0.6-0.3,0.9-0.4c0.6-0.2,1.2-0.4,1.9-0.6
							c0.1,0,0.3-0.1,0.4-0.1c0.1,0,0.2,0,0.2-0.1l3.5-0.2c0.4,0,0.9,0.1,1.4,0.1l0.2,0c0.1,0,0.3,0,0.4,0l0.1,0l0.2,0h0.1
							c0.3,0,0.5,0,0.8,0c6,0,12-2.6,16.3-7c4.3-4.5,6.7-10.5,6.6-16.5l0-0.2l0-0.2c0-0.2,0-0.3-0.1-0.5c0-0.2,0-0.4-0.1-0.6l0-0.4
							c0-0.3-0.1-0.6-0.1-0.9l0.3-3.5c0-0.1,0-0.2,0.1-0.3l0.1-0.2c0.2-0.7,0.3-1.3,0.6-2c0.1-0.4,0.3-0.6,0.4-0.9
							c0.3-0.6,0.6-1.2,0.9-1.7c0.1-0.2,0.3-0.5,0.5-0.7c0.6-0.9,1.2-1.6,1.8-2.2c3-3,6.9-4.6,11.1-4.6c4.2,0,8.2,1.6,11.1,4.6
							c6.1,6.1,6.1,16.1,0,22.2c-0.6,0.6-1.3,1.2-2.2,1.8c-0.3,0.2-0.5,0.3-0.8,0.5c-0.6,0.3-1.1,0.6-1.7,0.9
							c-0.3,0.1-0.6,0.3-0.9,0.4c-0.6,0.2-1.2,0.4-1.9,0.6l-0.4,0.1c-0.1,0-0.2,0.1-0.3,0.1l-3.5,0.3c-0.4,0-0.8-0.1-1.3-0.1l-0.3,0
							c-0.1,0-0.3,0-0.4,0l-0.1,0l-0.2,0h-0.1c-0.3,0-0.5,0-0.8,0c-6,0-12,2.6-16.3,7c-4.3,4.5-6.7,10.5-6.6,16.5l0,0.2l0,0.2
							c0,0.2,0,0.3,0.1,0.5c0,0.2,0,0.4,0.1,0.6c0,0.1,0,0.3,0.1,0.5c0,0.2,0.1,0.5,0.1,0.7v0.1l-0.3,3.4c0,0.1-0.1,0.5-0.2,0.6
							c-0.2,0.7-0.4,1.4-0.6,1.9c-0.1,0.3-0.2,0.6-0.4,0.9c-0.3,0.6-0.6,1.2-0.9,1.8c-0.1,0.2-0.3,0.5-0.5,0.8
							c-0.6,0.8-1.2,1.6-1.8,2.2C24.3,114.4,20.3,116,16.1,116L16.1,116z"/>
					</g>
					<path class="st0" d="M58.6,116c-4.2,0-8.2-1.6-11.1-4.6c-3-3-4.6-6.9-4.6-11.1c0-4.2,1.6-8.1,4.6-11.1c0.6-0.6,1.3-1.2,2.2-1.8
						c0.2-0.2,0.5-0.3,0.7-0.5c0.6-0.3,1.1-0.6,1.7-0.9c0.3-0.1,0.6-0.3,0.9-0.4c0.6-0.2,1.2-0.4,1.9-0.6c0,0,0.6-0.2,0.6-0.2
						l3.6-0.3c0.4,0,0.9,0.1,1.3,0.1l0.3,0c0.2,0,0.3,0,0.5,0c0.1,0,0.1,0,0.2,0l0.1,0l0.1,0c0.3,0,0.5,0,0.8,0c6,0,12-2.6,16.3-7
						c4.3-4.5,6.7-10.5,6.6-16.5l0-0.7l-0.1-0.1c0,0,0-0.1,0-0.1c0-0.2,0-0.3,0-0.5l-0.1-0.5c0-0.3-0.1-0.6-0.1-0.8l0.2-3.4
						c0-0.1,0.1-0.5,0.2-0.6c0.2-0.8,0.4-1.4,0.6-1.9c0.1-0.3,0.2-0.6,0.4-0.9c0.3-0.5,0.5-1.1,0.9-1.7l0.1-0.1
						c0.1-0.2,0.2-0.4,0.4-0.6c0.6-0.9,1.2-1.6,1.8-2.2c3-3,6.9-4.6,11.1-4.6c4.2,0,8.1,1.6,11.1,4.6c6.1,6.1,6.1,16.1,0,22.2
						c-0.6,0.6-1.3,1.2-2.2,1.8c-0.2,0.1-0.3,0.2-0.5,0.3l-0.3,0.2c-0.5,0.3-1.1,0.6-1.7,0.9c-0.3,0.1-0.6,0.3-0.9,0.4
						c-0.6,0.2-1.2,0.4-1.9,0.6c-0.2,0-0.3,0.1-0.4,0.1c-0.1,0-0.2,0-0.2,0.1l-3.5,0.2c-0.5,0-1.1-0.1-1.6-0.2c-0.2,0-0.3,0-0.5,0
						c-0.1,0-0.1,0-0.2,0l-0.3,0c-0.3,0-0.5,0-0.8,0c-6,0-12,2.6-16.3,7c-4.3,4.5-6.7,10.5-6.5,16.5l0,0.2l0,0.2
						c0,0.2,0,0.4,0.1,0.5c0,0.2,0,0.4,0,0.5c0,0.1,0,0.3,0.1,0.5c0,0.3,0.1,0.5,0.1,0.8l-0.3,3.5c0,0.1-0.2,0.5-0.2,0.5
						c-0.2,0.7-0.4,1.4-0.6,2c-0.1,0.3-0.2,0.6-0.4,0.8l0,0.1c-0.3,0.6-0.6,1.1-0.9,1.7c-0.2,0.3-0.3,0.5-0.5,0.8
						c-0.6,0.9-1.2,1.6-1.8,2.2C66.7,114.4,62.8,116,58.6,116L58.6,116z"/>
					<path class="st0" d="M16.1,73.6C11.9,73.6,8,71.9,5,69c-3-3-4.6-6.9-4.6-11.1c0-4.2,1.6-8.1,4.6-11.1c0.6-0.6,1.3-1.2,2.2-1.8
						c0.2-0.2,0.5-0.3,0.8-0.5c0.5-0.3,1.1-0.6,1.7-0.9c0.3-0.1,0.6-0.3,0.9-0.4c0.6-0.2,1.2-0.4,1.9-0.5l0.4-0.1
						c0.1,0,0.1,0,0.2-0.1l3.6-0.3c0.5,0,1,0.1,1.5,0.2l0.1,0c0.2,0,0.3,0,0.5,0c0.1,0,0.1,0,0.2,0l0.2,0l0.1,0c0.3,0,0.5,0,0.8,0
						c6,0,12-2.6,16.3-7c4.3-4.5,6.7-10.5,6.5-16.5l0-0.2l0-0.2c0-0.2,0-0.4-0.1-0.6c0-0.2,0-0.3,0-0.5L42.7,17
						c0-0.3-0.1-0.6-0.1-0.9l0.2-3.3l0-0.1v-0.1c0-0.1,0.1-0.5,0.1-0.5c0.2-0.8,0.4-1.5,0.6-2c0.1-0.3,0.3-0.6,0.4-0.9
						c0.3-0.6,0.6-1.1,0.9-1.7l0.1-0.1C45,7.3,45.2,7,45.3,6.8c0.6-0.9,1.2-1.6,1.8-2.2c3-3,6.9-4.6,11.1-4.6
						c4.2,0,8.2,1.6,11.1,4.6c6.1,6.1,6.1,16.1,0,22.2c-0.6,0.6-1.3,1.2-2.2,1.8c-0.2,0.2-0.4,0.3-0.7,0.4l-0.1,0.1
						c-0.6,0.3-1.1,0.6-1.7,0.9c-0.3,0.1-0.6,0.3-0.9,0.4c-0.6,0.2-1.2,0.4-1.9,0.6c-0.1,0-0.3,0.1-0.4,0.1c-0.1,0-0.2,0-0.2,0.1
						l-3.5,0.2c-0.4,0-0.9-0.1-1.4-0.1l-0.2,0c-0.2,0-0.3,0-0.5,0c-0.1,0-0.1,0-0.2,0l-0.1,0l-0.2,0c-0.3,0-0.5,0-0.8,0
						c-6,0-12,2.6-16.3,7c-4.3,4.5-6.7,10.5-6.6,16.5l0,0.2l0,0.2c0,0.2,0,0.4,0.1,0.5c0,0.2,0,0.4,0,0.6c0,0.1,0,0.3,0.1,0.5
						c0,0.3,0.1,0.5,0.1,0.8l-0.3,3.4c0,0.1,0,0.2-0.1,0.3l-0.1,0.3c-0.2,0.8-0.4,1.4-0.6,2c-0.1,0.3-0.3,0.6-0.4,0.9
						c-0.3,0.6-0.6,1.1-0.9,1.7c-0.2,0.3-0.3,0.5-0.5,0.8c-0.6,0.9-1.2,1.6-1.8,2.2C24.3,71.9,20.3,73.6,16.1,73.6L16.1,73.6z"/>
				</g>
			</g>
		</g>
	</g>
	<g>
		<path class="st1" d="M152.3,93.2V22.8h14.9v70.4H152.3z"/>
		<path class="st1" d="M244,93.2h-19L194.4,40H194c0.6,9.4,0.9,16.1,0.9,20.1v33.1h-13.3V22.8h18.8L231,75.6h0.3
			c-0.5-9.1-0.7-15.6-0.7-19.4V22.8H244V93.2z"/>
		<path class="st1" d="M298.5,93.2H258V22.8h40.5v12.2h-25.6v15.5h23.8v12.2h-23.8v18.1h25.6V93.2z"/>
		<path class="st1" d="M354.8,73.7c0,6.4-2.3,11.4-6.9,15c-4.6,3.7-10.9,5.5-19.1,5.5c-7.5,0-14.2-1.4-19.9-4.2V76.1
			c4.7,2.1,8.8,3.6,12.1,4.5c3.3,0.9,6.3,1.3,9,1.3c3.3,0,5.8-0.6,7.5-1.9s2.6-3.1,2.6-5.6c0-1.4-0.4-2.6-1.2-3.7
			c-0.8-1.1-1.9-2.1-3.4-3.1c-1.5-1-4.5-2.6-9.1-4.8c-4.3-2-7.5-4-9.7-5.8c-2.2-1.9-3.9-4-5.2-6.5c-1.3-2.5-1.9-5.4-1.9-8.7
			c0-6.2,2.1-11.1,6.3-14.7s10.1-5.3,17.5-5.3c3.7,0,7.1,0.4,10.5,1.3c3.3,0.9,6.8,2.1,10.4,3.7l-4.8,11.6c-3.8-1.5-6.9-2.6-9.3-3.2
			c-2.5-0.6-4.9-0.9-7.2-0.9c-2.8,0-5,0.7-6.5,2c-1.5,1.3-2.3,3-2.3,5.2c0,1.3,0.3,2.5,0.9,3.4c0.6,1,1.6,1.9,2.9,2.8
			c1.3,0.9,4.5,2.6,9.5,4.9c6.6,3.1,11.1,6.3,13.5,9.5C353.5,65.2,354.8,69.1,354.8,73.7z"/>
		<path class="st1" d="M389.4,51.8l14.7-29h16.1l-23.3,43v27.4H382V66.3l-23.3-43.5h16.2L389.4,51.8z"/>
		<path class="st1" d="M466.7,73.7c0,6.4-2.3,11.4-6.9,15c-4.6,3.7-10.9,5.5-19.1,5.5c-7.5,0-14.2-1.4-19.9-4.2V76.1
			c4.7,2.1,8.8,3.6,12.1,4.5c3.3,0.9,6.3,1.3,9,1.3c3.3,0,5.8-0.6,7.5-1.9s2.6-3.1,2.6-5.6c0-1.4-0.4-2.6-1.2-3.7
			c-0.8-1.1-1.9-2.1-3.4-3.1c-1.5-1-4.5-2.6-9.1-4.8c-4.3-2-7.5-4-9.7-5.8c-2.2-1.9-3.9-4-5.2-6.5c-1.3-2.5-1.9-5.4-1.9-8.7
			c0-6.2,2.1-11.1,6.3-14.7s10.1-5.3,17.5-5.3c3.7,0,7.1,0.4,10.5,1.3c3.3,0.9,6.8,2.1,10.4,3.7l-4.8,11.6c-3.8-1.5-6.9-2.6-9.3-3.2
			c-2.5-0.6-4.9-0.9-7.2-0.9c-2.8,0-5,0.7-6.5,2c-1.5,1.3-2.3,3-2.3,5.2c0,1.3,0.3,2.5,0.9,3.4c0.6,1,1.6,1.9,2.9,2.8
			c1.3,0.9,4.5,2.6,9.5,4.9c6.6,3.1,11.1,6.3,13.5,9.5C465.5,65.2,466.7,69.1,466.7,73.7z"/>
	</g>
</g>
</svg>
