<?xml version="1.0" encoding="utf-8"?>
<!-- Generator: Adobe Illustrator 22.1.0, SVG Export Plug-In . SVG Version: 6.00 Build 0)  -->
<svg version="1.1" id="Слой_1" xmlns="http://www.w3.org/2000/svg" xmlns:xlink="http://www.w3.org/1999/xlink" x="0px" y="0px"
	 viewBox="0 0 148.3 113.2" style="enable-background:new 0 0 148.3 113.2;" xml:space="preserve">
<style type="text/css">
	.st0{fill:#00802E;}
</style>
<g>
	<g>
		<g>
			<path class="st0" d="M127.9,109.2H123V49.4c0-1.4-1.4-2-2.6-1.5l-13.6,7.3L103,3.4c0-0.9-0.9-1.5-1.7-1.5H85.6
				c-0.9,0-1.7,0.7-1.7,1.5l-3.6,49.3l-9.5,5.1L68.2,18c0-0.9-0.9-1.5-1.7-1.5H54.4c-0.9,0-1.7,0.7-1.7,1.5l-2.4,32.9l-23.9,9.5
				c-0.7,0.3-1,0.9-1,1.5c0,17.6,0,30.4,0,47.2h-4.9c-1,0-1.7,0.7-1.7,1.7s0.7,1.7,1.7,1.7c38.9,0,70.4,0,107.4,0
				c1,0,1.7-0.7,1.7-1.7C129.6,109.9,128.7,109.2,127.9,109.2z M28.8,103.3h9.5v6h-9.5V103.3z M71.6,103.3h47.9v6H71.6V103.3z
				 M68.2,109.2H41.7V94.8h26.4L68.2,109.2L68.2,109.2z M86.4,16.8h14.2l0.7,9H85.7L86.4,16.8z M99.7,5.2l0.5,8.2H86.6l0.5-8.2H99.7
				z M85.6,29.3h15.9l2,27.8l-11.9,6.5v-14c0-1.2-1.4-2-2.6-1.5l-5.1,2.7L85.6,29.3z M55.2,28.8h10.2l0.5,6.3H54.7L55.2,28.8z
				 M64.8,19.7l0.3,5.6h-9.7l0.3-5.6H64.8z M54.5,38.5h11.8l1.5,21l-7.5,4.1v-14c0-1.4-1.4-2-2.4-1.5l-4.1,1.7L54.5,38.5z M56.8,52
				v14.3c0,1.4,1.4,2,2.6,1.5c2.9-1.5-10.7,5.8,28.8-15.5v14c0,1.4,1.4,2,2.6,1.5l28.8-15.5v47.6h-48V93c0-1-0.7-1.7-1.7-1.7H40
				c-1,0-1.7,0.7-1.7,1.7v6.8h-9.5V63.2C31.7,62,18.4,67.3,56.8,52z"/>
			<path class="st0" d="M127.9,113.2H20.4c-1.3,0-2.2-0.9-2.2-2.2s0.9-2.2,2.2-2.2h4.4V62c0-0.9,0.4-1.6,1.3-2l0,0l23.6-9.4L52.2,18
				c0-1.1,1-2,2.2-2h12.1c1.2,0,2.2,0.9,2.2,2l2.5,38.9l8.6-4.6l3.6-49c0-1.1,1-2,2.2-2h15.7c1.2,0,2.2,0.9,2.2,2l3.7,51.1l13-7
				c0.8-0.3,1.6-0.3,2.3,0.2c0.6,0.4,1,1.1,1,1.8v59.4h4.4c1.1,0,2.2,0.8,2.2,2.2C130.1,112.2,129.2,113.2,127.9,113.2z M20.4,109.7
				c-0.7,0-1.2,0.5-1.2,1.2s0.5,1.2,1.2,1.2h107.4c0.7,0,1.2-0.5,1.2-1.2s-0.6-1.2-1.2-1.2h-5.4V49.4c0-0.4-0.2-0.8-0.5-1
				c-0.4-0.2-0.9-0.3-1.3-0.1L106.3,56l-3.8-52.6c0-0.6-0.6-1-1.2-1H85.6c-0.6,0-1.2,0.5-1.2,1l0,0L80.8,53l-10.5,5.6L67.7,18
				c0-0.6-0.6-1-1.2-1H54.4c-0.6,0-1.2,0.5-1.2,1l0,0l-2.4,33.2l-24.1,9.7C26.2,61.2,26,61.5,26,62v47.7H20.4z M120,109.7H71.1v-7
				H120V109.7z M72.1,108.7H119v-5H72.1V108.7z M68.7,109.7H41.2V94.3h27.4L68.7,109.7L68.7,109.7z M42.2,108.7h25.4V95.3H42.2
				V108.7z M38.8,109.7H28.3v-7h10.5V109.7z M29.3,108.7h8.5v-5h-8.5V108.7z M120,100.4H71.1V93c0-0.7-0.5-1.2-1.2-1.2H40
				c-0.7,0-1.2,0.5-1.2,1.2v7.3H28.3V63.2c0-0.1,0-0.1,0-0.2v-0.2l0.2-0.1c0.1-0.1,0.2-0.1,0.3-0.2c0.1-0.1,0.4-0.2,0.7-0.3
				c0.7-0.3,1.9-0.8,3.8-1.5c4.2-1.7,11.8-4.7,23.2-9.3l0.7-0.3v15.1c0,0.4,0.2,0.8,0.5,1c0.4,0.2,0.9,0.3,1.3,0.1
				c0.1-0.1,0.2-0.1,0.3-0.2h0.1l0,0c0.2-0.1,0.4-0.2,0.7-0.4c2.4-1.3,9.2-5,27.7-14.9l0.7-0.4v14.8c0,0.4,0.2,0.8,0.5,1
				c0.4,0.2,0.9,0.3,1.3,0.1L120,51.5V100.4z M72.1,99.4H119V53.1L90.9,68.3l0,0c-0.8,0.3-1.6,0.3-2.3-0.2c-0.6-0.4-1-1.1-1-1.8
				V53.1c-17.9,9.7-24.7,13.3-27,14.5l-0.9,0.5c0,0-0.1,0-0.1,0.1l0,0l-0.1,0.1l0,0h-0.1c-0.7,0.3-1.5,0.2-2.2-0.2
				c-0.6-0.4-1-1.1-1-1.8V52.7c-18.6,7.5-25,10-26.7,10.7c-0.1,0-0.2,0.1-0.3,0.1v35.8h8.5V93c0-1.3,0.9-2.2,2.2-2.2h29.8
				c1.3,0,2.2,0.9,2.2,2.2v6.4H72.1z M59.8,64.4V49.6c0-0.6-0.3-0.9-0.5-1c-0.3-0.2-0.8-0.2-1.1-0.1l0,0l-4.8,2L54.1,38h12.7
				l1.6,21.8L59.8,64.4z M58.7,47.4c0.4,0,0.8,0.1,1.1,0.3c0.6,0.4,1,1.1,1,1.9v13.1l6.5-3.5L65.8,39H55l-0.6,10l3.3-1.4
				C58,47.4,58.4,47.4,58.7,47.4z M91,64.4V49.6c0-0.4-0.2-0.7-0.5-1c-0.4-0.3-0.9-0.3-1.3-0.1l-5.9,3.1l1.8-22.9h16.8l2.1,28.6
				L91,64.4z M89.7,47.4c0.5,0,0.9,0.1,1.3,0.4c0.6,0.4,1,1.1,1,1.8v13.1l10.9-5.9l-2-27H86l-1.6,20.1l4.3-2.3
				C89.1,47.4,89.4,47.4,89.7,47.4z M66.5,35.6H54.2l0.6-7.3H66L66.5,35.6z M55.3,34.6h10.2L65,29.3h-9.3L55.3,34.6z M101.8,26.4
				H85.2l0.8-10h15L101.8,26.4z M86.3,25.4h14.4l-0.6-8H86.9L86.3,25.4z M65.6,25.9H54.9l0.4-6.6h10L65.6,25.9z M55.9,24.9h8.7
				l-0.3-4.6h-8.1L55.9,24.9z M100.8,13.9H86.1l0.6-9.2h13.6L100.8,13.9z M87.1,12.9h12.6l-0.4-7.2H87.6L87.1,12.9z"/>
		</g>
	</g>
	<g>
		<g>
			<path class="st0" d="M40,87.8h29.8c1,0,1.7-0.7,1.7-1.7s-0.7-1.7-1.7-1.7H40c-1,0-1.7,0.7-1.7,1.7C38.3,87.1,39.2,87.8,40,87.8z"
				/>
			<path class="st0" d="M69.9,88.3H40c-1.1,0-2.2-0.8-2.2-2.2c0-1.3,0.9-2.2,2.2-2.2h29.8c1.3,0,2.2,0.9,2.2,2.2
				S71.2,88.3,69.9,88.3z M40,84.9c-0.7,0-1.2,0.5-1.2,1.2s0.6,1.2,1.2,1.2h29.8c0.7,0,1.2-0.5,1.2-1.2s-0.5-1.2-1.2-1.2H40z"/>
		</g>
	</g>
	<g>
		<g>
			<path class="st0" d="M80.3,95.1c1,0,1.7-0.7,1.7-1.7v-6c0-1-0.7-1.7-1.7-1.7s-1.7,0.7-1.7,1.7v6C78.6,94.4,79.4,95.1,80.3,95.1z"
				/>
			<path class="st0" d="M80.3,95.6c-1.1,0-2.2-0.8-2.2-2.2v-6c0-1.3,0.9-2.2,2.2-2.2s2.2,0.9,2.2,2.2v6
				C82.5,94.7,81.6,95.6,80.3,95.6z M80.3,86.2c-0.7,0-1.2,0.5-1.2,1.2v6c0,0.7,0.6,1.2,1.2,1.2c0.7,0,1.2-0.5,1.2-1.2v-6
				C81.5,86.7,81,86.2,80.3,86.2z"/>
		</g>
	</g>
	<g>
		<g>
			<path class="st0" d="M88.6,95.1c1,0,1.7-0.7,1.7-1.7v-6c0-1-0.7-1.7-1.7-1.7s-1.7,0.7-1.7,1.7v6C86.9,94.4,87.8,95.1,88.6,95.1z"
				/>
			<path class="st0" d="M88.6,95.6c-1.1,0-2.2-0.8-2.2-2.2v-6c0-1.3,0.9-2.2,2.2-2.2s2.2,0.9,2.2,2.2v6
				C90.8,94.7,89.9,95.6,88.6,95.6z M88.6,86.2c-0.7,0-1.2,0.5-1.2,1.2v6c0,0.7,0.6,1.2,1.2,1.2c0.7,0,1.2-0.5,1.2-1.2v-6
				C89.8,86.7,89.4,86.2,88.6,86.2z"/>
		</g>
	</g>
	<g>
		<g>
			<path class="st0" d="M97.2,95.1c1,0,1.7-0.7,1.7-1.7v-6c0-1-0.7-1.7-1.7-1.7s-1.7,0.7-1.7,1.7v6C95.5,94.4,96.1,95.1,97.2,95.1z"
				/>
			<path class="st0" d="M97.2,95.6c-1.3,0-2.2-0.9-2.2-2.2v-6c0-1.3,0.9-2.2,2.2-2.2s2.2,0.9,2.2,2.2v6
				C99.4,94.7,98.5,95.6,97.2,95.6z M97.2,86.2c-0.7,0-1.2,0.5-1.2,1.2v6c0,0.7,0.5,1.2,1.2,1.2s1.2-0.5,1.2-1.2v-6
				C98.4,86.7,97.9,86.2,97.2,86.2z"/>
		</g>
	</g>
	<g>
		<g>
			<path class="st0" d="M105.5,95.1c1,0,1.7-0.7,1.7-1.7v-6c0-1-0.7-1.7-1.7-1.7s-1.7,0.7-1.7,1.7v6
				C103.8,94.4,104.7,95.1,105.5,95.1z"/>
			<path class="st0" d="M105.5,95.6c-1.1,0-2.2-0.8-2.2-2.2v-6c0-1.3,0.9-2.2,2.2-2.2c1.3,0,2.2,0.9,2.2,2.2v6
				C107.7,94.7,106.8,95.6,105.5,95.6z M105.5,86.2c-0.7,0-1.2,0.5-1.2,1.2v6c0,0.7,0.6,1.2,1.2,1.2c0.7,0,1.2-0.5,1.2-1.2v-6
				C106.7,86.7,106.3,86.2,105.5,86.2z"/>
		</g>
	</g>
	<g>
		<g>
			<path class="st0" d="M114,95.1c1,0,1.7-0.7,1.7-1.7v-6c0-1-0.7-1.7-1.7-1.7s-1.7,0.7-1.7,1.7v6C112.3,94.4,113,95.1,114,95.1z"/>
			<path class="st0" d="M114,95.6c-1.3,0-2.2-0.9-2.2-2.2v-6c0-1.3,0.9-2.2,2.2-2.2s2.2,0.9,2.2,2.2v6
				C116.3,94.7,115.3,95.6,114,95.6z M114,86.2c-0.7,0-1.2,0.5-1.2,1.2v6c0,0.7,0.5,1.2,1.2,1.2s1.2-0.5,1.2-1.2v-6
				C115.3,86.7,114.8,86.2,114,86.2z"/>
		</g>
	</g>
</g>
</svg>
